<svg version="1.1" xmlns="http://www.w3.org/2000/svg" xmlns:xlink="http://www.w3.org/1999/xlink" width="472.298828125" height="417"><defs/><g><g transform="translate(-118,-30) scale(1,1)"><rect fill="#ffffff" stroke="none" x="304" y="120" width="82" height="45"/></g><g transform="translate(-118,-30) scale(1,1)"><path fill="none" stroke="#000000" d="M 304 120 L 386 120 L 386 165 L 304 165 L 304 120 Z Z" stroke-miterlimit="10"/></g><g transform="translate(-118,-30) scale(1,1)"><g><path fill="none" stroke="none"/><text fill="#000000" stroke="none" font-family="Arial" font-size="13px" font-style="normal" font-weight="normal" text-decoration="none" x="325" y="142.5">Collect</text><text fill="#000000" stroke="none" font-family="Arial" font-size="13px" font-style="normal" font-weight="normal" text-decoration="none" x="331.5" y="155.5">Data</text></g></g><g transform="translate(-118,-30) scale(1,1)"><rect fill="#ffffff" stroke="none" x="128" y="256" width="82" height="45"/></g><g transform="translate(-118,-30) scale(1,1)"><path fill="none" stroke="#000000" d="M 128 256 L 210 256 L 210 301 L 128 301 L 128 256 Z Z" stroke-miterlimit="10"/></g><g transform="translate(-118,-30) scale(1,1)"><g><path fill="none" stroke="none"/><text fill="#000000" stroke="none" font-family="Arial" font-size="13px" font-style="normal" font-weight="normal" text-decoration="none" x="139.5" y="278.5">Send data</text></g></g><g transform="translate(-118,-30) scale(1,1)"><path fill="none" stroke="#000000" d="M 304 142 L 177 142 M 177 142 A 8 8 0 0 0 169 150 L 169 256" stroke-miterlimit="10"/></g><g transform="translate(-118,-30) scale(1,1)"><path fill="#000000" stroke="none" d="M 164.790482243984 245.83732514237585 L 169 256 L 173.209517756016 245.83732514237585"/></g><g transform="translate(-118,-30) scale(1,1)"><path fill="none" stroke="#000000" d="M 164.790482243984 245.83732514237585 L 169 256 L 173.209517756016 245.83732514237585 L 164.790482243984 245.83732514237585" stroke-miterlimit="10"/></g><g transform="translate(-118,-30) scale(1,1)"><path fill="#ffffff" stroke="none" d="M 312.5 56 L 383.5 56 Q 400 56 400 72.5 L 400 71.5 Q 400 88 383.5 88 L 312.5 88 Q 296 88 296 71.5 L 296 72.5 Q 296 56 312.5 56 Z"/></g><g transform="translate(-118,-30) scale(1,1)"><path fill="none" stroke="#000000" d="M 312.5 56 L 383.5 56 Q 400 56 400 72.5 L 400 71.5 Q 400 88 383.5 88 L 312.5 88 Q 296 88 296 71.5 L 296 72.5 Q 296 56 312.5 56 Z" stroke-miterlimit="10"/></g><g transform="translate(-118,-30) scale(1,1)"><g><path fill="none" stroke="none"/><text fill="#000000" stroke="none" font-family="Arial" font-size="13px" font-style="normal" font-weight="normal" text-decoration="none" x="319.5" y="78.5">Power On</text></g></g><g transform="translate(-118,-30) scale(1,1)"><path fill="none" stroke="#000000" d="M 344 88 L 344 120" stroke-miterlimit="10"/></g><g transform="translate(-118,-30) scale(1,1)"><path fill="#000000" stroke="none" d="M 339.790482243984 109.83732514237585 L 344 120 L 348.209517756016 109.83732514237585"/></g><g transform="translate(-118,-30) scale(1,1)"><path fill="none" stroke="#000000" d="M 339.790482243984 109.83732514237585 L 344 120 L 348.209517756016 109.83732514237585 L 339.790482243984 109.83732514237585" stroke-miterlimit="10"/></g><g transform="translate(-118,-30) scale(1,1)"><path fill="#ffffff" stroke="none" d="M 320.5 264 L 375.5 264 Q 392 264 392 280.5 L 392 279.5 Q 392 296 375.5 296 L 320.5 296 Q 304 296 304 279.5 L 304 280.5 Q 304 264 320.5 264 Z"/></g><g transform="translate(-118,-30) scale(1,1)"><path fill="none" stroke="#000000" d="M 320.5 264 L 375.5 264 Q 392 264 392 280.5 L 392 279.5 Q 392 296 375.5 296 L 320.5 296 Q 304 296 304 279.5 L 304 280.5 Q 304 264 320.5 264 Z" stroke-miterlimit="10"/></g><g transform="translate(-118,-30) scale(1,1)"><g><path fill="none" stroke="none"/><text fill="#000000" stroke="none" font-family="Arial" font-size="13px" font-style="normal" font-weight="normal" text-decoration="none" x="319" y="286.5">Power Off</text></g></g><g transform="translate(-118,-30) scale(1,1)"><path fill="none" stroke="#000000" d="M 348 165 L 348 264" stroke-miterlimit="10"/></g><g transform="translate(-118,-30) scale(1,1)"><path fill="#000000" stroke="none" d="M 343.790482243984 253.83732514237585 L 348 264 L 352.209517756016 253.83732514237585"/></g><g transform="translate(-118,-30) scale(1,1)"><path fill="none" stroke="#000000" d="M 343.790482243984 253.83732514237585 L 348 264 L 352.209517756016 253.83732514237585 L 343.790482243984 253.83732514237585" stroke-miterlimit="10"/></g><g transform="translate(-118,-30) scale(1,1)"><path fill="none" stroke="#000000" d="M 210 280 L 304 280" stroke-miterlimit="10"/></g><g transform="translate(-118,-30) scale(1,1)"><path fill="#000000" stroke="none" d="M 293.83732514237585 284.209517756016 L 304 280 L 293.83732514237585 275.790482243984"/></g><g transform="translate(-118,-30) scale(1,1)"><path fill="none" stroke="#000000" d="M 293.83732514237585 284.209517756016 L 304 280 L 293.83732514237585 275.790482243984 L 293.83732514237585 284.209517756016" stroke-miterlimit="10"/></g><g transform="translate(-118,-30) scale(1,1)"><path fill="#ffffff" stroke="none" d="M 144 40 L 210.50634765625 40 L 220.50634765625 50 L 220.50634765625 115 L 144 115 L 144 40"/></g><g transform="translate(-118,-30) scale(1,1)"><path fill="none" stroke="#000000" d="M 144 40 L 210.50634765625 40 L 220.50634765625 50 L 220.50634765625 115 L 144 115 L 144 40 L 144 40" stroke-miterlimit="10"/></g><g transform="translate(-118,-30) scale(1,1)"><path fill="none" stroke="#000000" d="M 210.50634765625 40 L 210.50634765625 50 L 220.50634765625 50 L 210.50634765625 40" stroke-miterlimit="10"/></g><g transform="translate(-118,-30) scale(1,1)"><g><path fill="none" stroke="none"/><text fill="#000000" stroke="none" font-family="Arial" font-size="13px" font-style="normal" font-weight="normal" text-decoration="none" x="149" y="58">This is</text><text fill="#000000" stroke="none" font-family="Arial" font-size="13px" font-style="normal" font-weight="normal" text-decoration="none" x="149" y="71">hardware</text><text fill="#000000" stroke="none" font-family="Arial" font-size="13px" font-style="normal" font-weight="normal" text-decoration="none" x="149" y="84">and sensor</text><text fill="#000000" stroke="none" font-family="Arial" font-size="13px" font-style="normal" font-weight="normal" text-decoration="none" x="149" y="97">specific</text></g></g><g transform="translate(-118,-30) scale(1,1)"><path fill="none" stroke="#000000" d="M 223 94 L 303 126" stroke-miterlimit="10" stroke-dasharray="3"/></g><g transform="translate(-118,-30) scale(1,1)"><path fill="#ffffff" stroke="none" d="M 472 72 L 569.298828125 72 L 579.298828125 82 L 579.298828125 134 L 472 134 L 472 72"/></g><g transform="translate(-118,-30) scale(1,1)"><path fill="none" stroke="#000000" d="M 472 72 L 569.298828125 72 L 579.298828125 82 L 579.298828125 134 L 472 134 L 472 72 L 472 72" stroke-miterlimit="10"/></g><g transform="translate(-118,-30) scale(1,1)"><path fill="none" stroke="#000000" d="M 569.298828125 72 L 569.298828125 82 L 579.298828125 82 L 569.298828125 72" stroke-miterlimit="10"/></g><g transform="translate(-118,-30) scale(1,1)"><g><path fill="none" stroke="none"/><text fill="#000000" stroke="none" font-family="Arial" font-size="13px" font-style="normal" font-weight="normal" text-decoration="none" x="477" y="90">Handle any</text><text fill="#000000" stroke="none" font-family="Arial" font-size="13px" font-style="normal" font-weight="normal" text-decoration="none" x="477" y="103">setup and</text><text fill="#000000" stroke="none" font-family="Arial" font-size="13px" font-style="normal" font-weight="normal" text-decoration="none" x="477" y="116">bootstrapping</text><text fill="#000000" stroke="none" font-family="Arial" font-size="13px" font-style="normal" font-weight="normal" text-decoration="none" x="477" y="129">here</text></g></g><g transform="translate(-118,-30) scale(1,1)"><path fill="none" stroke="#000000" d="M 471 93 L 401 81" stroke-miterlimit="10" stroke-dasharray="3"/></g><g transform="translate(-118,-30) scale(1,1)"><path fill="#ffffff" stroke="none" d="M 200 320 L 331.7412109375 320 L 341.7412109375 330 L 341.7412109375 382 L 200 382 L 200 320"/></g><g transform="translate(-118,-30) scale(1,1)"><path fill="none" stroke="#000000" d="M 200 320 L 331.7412109375 320 L 341.7412109375 330 L 341.7412109375 382 L 200 382 L 200 320 L 200 320" stroke-miterlimit="10"/></g><g transform="translate(-118,-30) scale(1,1)"><path fill="none" stroke="#000000" d="M 331.7412109375 320 L 331.7412109375 330 L 341.7412109375 330 L 331.7412109375 320" stroke-miterlimit="10"/></g><g transform="translate(-118,-30) scale(1,1)"><g><path fill="none" stroke="none"/><text fill="#000000" stroke="none" font-family="Arial" font-size="13px" font-style="normal" font-weight="normal" text-decoration="none" x="205" y="338">Using one of the</text><text fill="#000000" stroke="none" font-family="Arial" font-size="13px" font-style="normal" font-weight="normal" text-decoration="none" x="205" y="351">"send_&lt;datatype&gt;()"</text><text fill="#000000" stroke="none" font-family="Arial" font-size="13px" font-style="normal" font-weight="normal" text-decoration="none" x="205" y="364">methods from the</text><text fill="#000000" stroke="none" font-family="Arial" font-size="13px" font-style="normal" font-weight="normal" text-decoration="none" x="205" y="377">MCInputHandler</text></g></g><g transform="translate(-118,-30) scale(1,1)"><path fill="none" stroke="#000000" d="M 226 319 L 203 302" stroke-miterlimit="10" stroke-dasharray="3"/></g><g transform="translate(-118,-30) scale(1,1)"><path fill="#ffffff" stroke="none" d="M 232 192 L 306.8154296875 192 L 316.8154296875 202 L 316.8154296875 230 L 232 230 L 232 192"/></g><g transform="translate(-118,-30) scale(1,1)"><path fill="none" stroke="#000000" d="M 232 192 L 306.8154296875 192 L 316.8154296875 202 L 316.8154296875 230 L 232 230 L 232 192 L 232 192" stroke-miterlimit="10"/></g><g transform="translate(-118,-30) scale(1,1)"><path fill="none" stroke="#000000" d="M 306.8154296875 192 L 306.8154296875 202 L 316.8154296875 202 L 306.8154296875 192" stroke-miterlimit="10"/></g><g transform="translate(-118,-30) scale(1,1)"><g><path fill="none" stroke="none"/><text fill="#000000" stroke="none" font-family="Arial" font-size="13px" font-style="normal" font-weight="normal" text-decoration="none" x="237" y="210">Typically</text><text fill="#000000" stroke="none" font-family="Arial" font-size="13px" font-style="normal" font-weight="normal" text-decoration="none" x="237" y="223">unplanned</text></g></g><g transform="translate(-118,-30) scale(1,1)"><path fill="none" stroke="#000000" d="M 330 263 L 297 232" stroke-miterlimit="10" stroke-dasharray="3"/></g><g transform="translate(-118,-30) scale(1,1)"><rect fill="#ffffff" stroke="none" x="312" y="392" width="74" height="45"/></g><g transform="translate(-118,-30) scale(1,1)"><path fill="none" stroke="#000000" d="M 312 392 L 386 392 L 386 437 L 312 437 L 312 392 Z Z" stroke-miterlimit="10"/></g><g transform="translate(-118,-30) scale(1,1)"><g><path fill="none" stroke="none"/><text fill="#000000" stroke="none" font-family="Arial" font-size="13px" font-style="normal" font-weight="normal" text-decoration="none" x="322.5" y="414.5">Clean Up</text></g></g><g transform="translate(-118,-30) scale(1,1)"><path fill="none" stroke="#000000" d="M 169 301 L 169 400 M 169 400 A 8 8 0 0 0 177 408 L 312 408" stroke-miterlimit="10"/></g><g transform="translate(-118,-30) scale(1,1)"><path fill="#000000" stroke="none" d="M 301.83732514237585 412.209517756016 L 312 408 L 301.83732514237585 403.790482243984"/></g><g transform="translate(-118,-30) scale(1,1)"><path fill="none" stroke="#000000" d="M 301.83732514237585 412.209517756016 L 312 408 L 301.83732514237585 403.790482243984 L 301.83732514237585 412.209517756016" stroke-miterlimit="10"/></g><g transform="translate(-118,-30) scale(1,1)"><path fill="none" stroke="#000000" d="M 386 408 L 512 408 M 512 408 A 8 8 0 0 0 520 400 L 520 152 M 520 152 A 8 8 0 0 0 512 144 L 386 144" stroke-miterlimit="10"/></g><g transform="translate(-118,-30) scale(1,1)"><path fill="#000000" stroke="none" d="M 396.16267485762415 139.790482243984 L 386 144 L 396.16267485762415 148.209517756016"/></g><g transform="translate(-118,-30) scale(1,1)"><path fill="none" stroke="#000000" d="M 396.16267485762415 139.790482243984 L 386 144 L 396.16267485762415 148.209517756016 L 396.16267485762415 139.790482243984" stroke-miterlimit="10"/></g><g transform="translate(-118,-30) scale(1,1)"><path fill="none" stroke="#000000" d="M 348 392 L 348 296" stroke-miterlimit="10"/></g><g transform="translate(-118,-30) scale(1,1)"><path fill="#000000" stroke="none" d="M 352.209517756016 306.16267485762415 L 348 296 L 343.790482243984 306.16267485762415"/></g><g transform="translate(-118,-30) scale(1,1)"><path fill="none" stroke="#000000" d="M 352.209517756016 306.16267485762415 L 348 296 L 343.790482243984 306.16267485762415 L 352.209517756016 306.16267485762415" stroke-miterlimit="10"/></g><g transform="translate(-118,-30) scale(1,1)"><path fill="#ffffff" stroke="none" d="M 408 192 L 493 192 L 503 202 L 503 384 L 408 384 L 408 192"/></g><g transform="translate(-118,-30) scale(1,1)"><path fill="none" stroke="#000000" d="M 408 192 L 493 192 L 503 202 L 503 384 L 408 384 L 408 192 L 408 192" stroke-miterlimit="10"/></g><g transform="translate(-118,-30) scale(1,1)"><path fill="none" stroke="#000000" d="M 493 192 L 493 202 L 503 202 L 493 192" stroke-miterlimit="10"/></g><g transform="translate(-118,-30) scale(1,1)"><g><path fill="none" stroke="none"/><text fill="#000000" stroke="none" font-family="Arial" font-size="13px" font-style="normal" font-weight="normal" text-decoration="none" x="413" y="210">Clean up</text><text fill="#000000" stroke="none" font-family="Arial" font-size="13px" font-style="normal" font-weight="normal" text-decoration="none" x="413" y="223">anything that</text><text fill="#000000" stroke="none" font-family="Arial" font-size="13px" font-style="normal" font-weight="normal" text-decoration="none" x="413" y="236">needs to be</text><text fill="#000000" stroke="none" font-family="Arial" font-size="13px" font-style="normal" font-weight="normal" text-decoration="none" x="413" y="249">cleaned after</text><text fill="#000000" stroke="none" font-family="Arial" font-size="13px" font-style="normal" font-weight="normal" text-decoration="none" x="413" y="262">getting and</text><text fill="#000000" stroke="none" font-family="Arial" font-size="13px" font-style="normal" font-weight="normal" text-decoration="none" x="413" y="275">sending the</text><text fill="#000000" stroke="none" font-family="Arial" font-size="13px" font-style="normal" font-weight="normal" text-decoration="none" x="413" y="288">data. Should</text><text fill="#000000" stroke="none" font-family="Arial" font-size="13px" font-style="normal" font-weight="normal" text-decoration="none" x="413" y="301">be done to</text><text fill="#000000" stroke="none" font-family="Arial" font-size="13px" font-style="normal" font-weight="normal" text-decoration="none" x="413" y="314">conserve</text><text fill="#000000" stroke="none" font-family="Arial" font-size="13px" font-style="normal" font-weight="normal" text-decoration="none" x="413" y="327">memory and</text><text fill="#000000" stroke="none" font-family="Arial" font-size="13px" font-style="normal" font-weight="normal" text-decoration="none" x="413" y="340">speed</text><text fill="#000000" stroke="none" font-family="Arial" font-size="13px" font-style="normal" font-weight="normal" text-decoration="none" x="413" y="353">execution</text></g></g><g transform="translate(-118,-30) scale(1,1)"><path fill="none" stroke="#000000" d="M 369 391 L 407 346" stroke-miterlimit="10" stroke-dasharray="3"/></g></g></svg>