<svg version="1.1" xmlns="http://www.w3.org/2000/svg" xmlns:xlink="http://www.w3.org/1999/xlink" width="592.05712890625" height="687"><defs/><g><g transform="translate(-14,-86) scale(1,1)"><rect fill="#C0C0C0" stroke="none" x="295" y="135" width="308.05712890625" height="159" opacity="0.2"/></g><g transform="translate(-14,-86) scale(1,1)"><rect fill="#008400" stroke="none" x="288" y="128" width="308.05712890625" height="159"/></g><g transform="translate(-14,-86) scale(1,1)"><path fill="none" stroke="#000000" d="M 288 128 L 596.05712890625 128 L 596.05712890625 287 L 288 287 L 288 128 Z Z" stroke-miterlimit="10"/></g><g transform="translate(-14,-86) scale(1,1)"><path fill="none" stroke="#000000" d="M 288 168 L 596.05712890625 168" stroke-miterlimit="10"/></g><g transform="translate(-14,-86) scale(1,1)"><path fill="none" stroke="#000000" d="M 288 251 L 596.05712890625 251" stroke-miterlimit="10"/></g><g transform="translate(-14,-86) scale(1,1)"><g><path fill="none" stroke="none"/><text fill="#000000" stroke="none" font-family="Arial" font-size="13px" font-style="normal" font-weight="bold" text-decoration="none" x="394.528564453125" y="147.5">MasterController</text></g></g><g transform="translate(-14,-86) scale(1,1)"><g><path fill="none" stroke="none"/><text fill="#000000" stroke="none" font-family="Arial" font-size="13px" font-style="normal" font-weight="normal" text-decoration="none" x="531.05712890625" y="162.5">{Phase=2}</text></g></g><g transform="translate(-14,-86) scale(1,1)"><g><path fill="none" stroke="none"/><text fill="#000000" stroke="none" font-family="Arial" font-size="13px" font-style="normal" font-weight="normal" text-decoration="none" x="293" y="185.5">-throttle_logger: ThrottleLogger</text></g></g><g transform="translate(-14,-86) scale(1,1)"><g><path fill="none" stroke="none"/><text fill="#000000" stroke="none" font-family="Arial" font-size="13px" font-style="normal" font-weight="normal" text-decoration="none" x="293" y="200.5">-battery_voltage_logger: BatteryVoltageLogger</text></g></g><g transform="translate(-14,-86) scale(1,1)"><g><path fill="none" stroke="none"/><text fill="#000000" stroke="none" font-family="Arial" font-size="13px" font-style="normal" font-weight="normal" text-decoration="none" x="293" y="215.5">-motor_speed_logger: MotorSpeedLogger</text></g></g><g transform="translate(-14,-86) scale(1,1)"><g><path fill="none" stroke="none"/><text fill="#000000" stroke="none" font-family="Arial" font-size="13px" font-style="normal" font-weight="normal" text-decoration="none" x="293" y="230.5">-motor_current_logger: MotorCurrentLogger</text></g></g><g transform="translate(-14,-86) scale(1,1)"><g><path fill="none" stroke="none"/><text fill="#000000" stroke="none" font-family="Arial" font-size="13px" font-style="normal" font-weight="normal" text-decoration="none" x="293" y="245.5">-battery_monitor_logger: BatteryMonitorLogger</text></g></g><g transform="translate(-14,-86) scale(1,1)"><g><path fill="none" stroke="none"/><text fill="#000000" stroke="none" font-family="Arial" font-size="13px" font-style="normal" font-weight="normal" text-decoration="none" x="293" y="268.5">-log_record(MCData)</text></g></g><g transform="translate(-14,-86) scale(1,1)"><rect fill="#C0C0C0" stroke="none" x="303" y="399" width="127" height="72" opacity="0.2"/></g><g transform="translate(-14,-86) scale(1,1)"><rect fill="#008400" stroke="none" x="296" y="392" width="127" height="72"/></g><g transform="translate(-14,-86) scale(1,1)"><path fill="none" stroke="#000000" d="M 296 392 L 423 392 L 423 464 L 296 464 L 296 392 Z Z" stroke-miterlimit="10"/></g><g transform="translate(-14,-86) scale(1,1)"><path fill="none" stroke="#000000" d="M 296 432 L 423 432" stroke-miterlimit="10"/></g><g transform="translate(-14,-86) scale(1,1)"><path fill="none" stroke="#000000" d="M 296 442 L 423 442" stroke-miterlimit="10"/></g><g transform="translate(-14,-86) scale(1,1)"><g><path fill="none" stroke="none"/><text fill="#000000" stroke="none" font-family="Arial" font-size="13px" font-style="normal" font-weight="bold" text-decoration="none" x="318" y="411.5">ThrottleLogger</text></g></g><g transform="translate(-14,-86) scale(1,1)"><g><path fill="none" stroke="none"/><text fill="#000000" stroke="none" font-family="Arial" font-size="13px" font-style="normal" font-weight="normal" text-decoration="none" x="358" y="426.5">{Phase=2}</text></g></g><g transform="translate(-14,-86) scale(1,1)"><g><path fill="none" stroke="none"/><text fill="#000000" stroke="none" font-family="Arial" font-size="13px" font-style="normal" font-weight="normal" text-decoration="none" x="301" y="459.5">+get_next(): MCInt</text></g></g><g transform="translate(-14,-86) scale(1,1)"><rect fill="#C0C0C0" stroke="none" x="303" y="487" width="154.3359375" height="72" opacity="0.2"/></g><g transform="translate(-14,-86) scale(1,1)"><rect fill="#008400" stroke="none" x="296" y="480" width="154.3359375" height="72"/></g><g transform="translate(-14,-86) scale(1,1)"><path fill="none" stroke="#000000" d="M 296 480 L 450.3359375 480 L 450.3359375 552 L 296 552 L 296 480 Z Z" stroke-miterlimit="10"/></g><g transform="translate(-14,-86) scale(1,1)"><path fill="none" stroke="#000000" d="M 296 520 L 450.3359375 520" stroke-miterlimit="10"/></g><g transform="translate(-14,-86) scale(1,1)"><path fill="none" stroke="#000000" d="M 296 530 L 450.3359375 530" stroke-miterlimit="10"/></g><g transform="translate(-14,-86) scale(1,1)"><g><path fill="none" stroke="none"/><text fill="#000000" stroke="none" font-family="Arial" font-size="13px" font-style="normal" font-weight="bold" text-decoration="none" x="310.66796875" y="499.5">BatteryVoltageLogger</text></g></g><g transform="translate(-14,-86) scale(1,1)"><g><path fill="none" stroke="none"/><text fill="#000000" stroke="none" font-family="Arial" font-size="13px" font-style="normal" font-weight="normal" text-decoration="none" x="385.3359375" y="514.5">{Phase=2}</text></g></g><g transform="translate(-14,-86) scale(1,1)"><g><path fill="none" stroke="none"/><text fill="#000000" stroke="none" font-family="Arial" font-size="13px" font-style="normal" font-weight="normal" text-decoration="none" x="301" y="547.5">+get_next(): MCVoltage</text></g></g><g transform="translate(-14,-86) scale(1,1)"><rect fill="#C0C0C0" stroke="none" x="303" y="567" width="135.013671875" height="59" opacity="0.2"/></g><g transform="translate(-14,-86) scale(1,1)"><rect fill="#008400" stroke="none" x="296" y="560" width="135.013671875" height="59"/></g><g transform="translate(-14,-86) scale(1,1)"><path fill="none" stroke="#000000" d="M 296 560 L 431.013671875 560 L 431.013671875 619 L 296 619 L 296 560 Z Z" stroke-miterlimit="10"/></g><g transform="translate(-14,-86) scale(1,1)"><path fill="none" stroke="#000000" d="M 296 600 L 431.013671875 600" stroke-miterlimit="10"/></g><g transform="translate(-14,-86) scale(1,1)"><path fill="none" stroke="#000000" d="M 296 610 L 431.013671875 610" stroke-miterlimit="10"/></g><g transform="translate(-14,-86) scale(1,1)"><g><path fill="none" stroke="none"/><text fill="#000000" stroke="none" font-family="Arial" font-size="13px" font-style="normal" font-weight="bold" text-decoration="none" x="309.0068359375" y="579.5">MotorSpeedLogger</text></g></g><g transform="translate(-14,-86) scale(1,1)"><g><path fill="none" stroke="none"/><text fill="#000000" stroke="none" font-family="Arial" font-size="13px" font-style="normal" font-weight="normal" text-decoration="none" x="366.013671875" y="594.5">{Phase=2}</text></g></g><g transform="translate(-14,-86) scale(1,1)"><rect fill="#C0C0C0" stroke="none" x="303" y="639" width="146.16650390625" height="59" opacity="0.2"/></g><g transform="translate(-14,-86) scale(1,1)"><rect fill="#008400" stroke="none" x="296" y="632" width="146.16650390625" height="59"/></g><g transform="translate(-14,-86) scale(1,1)"><path fill="none" stroke="#000000" d="M 296 632 L 442.16650390625 632 L 442.16650390625 691 L 296 691 L 296 632 Z Z" stroke-miterlimit="10"/></g><g transform="translate(-14,-86) scale(1,1)"><path fill="none" stroke="#000000" d="M 296 672 L 442.16650390625 672" stroke-miterlimit="10"/></g><g transform="translate(-14,-86) scale(1,1)"><path fill="none" stroke="#000000" d="M 296 682 L 442.16650390625 682" stroke-miterlimit="10"/></g><g transform="translate(-14,-86) scale(1,1)"><g><path fill="none" stroke="none"/><text fill="#000000" stroke="none" font-family="Arial" font-size="13px" font-style="normal" font-weight="bold" text-decoration="none" x="312.083251953125" y="651.5">MotorCurrentLogger</text></g></g><g transform="translate(-14,-86) scale(1,1)"><g><path fill="none" stroke="none"/><text fill="#000000" stroke="none" font-family="Arial" font-size="13px" font-style="normal" font-weight="normal" text-decoration="none" x="377.16650390625" y="666.5">{Phase=2}</text></g></g><g transform="translate(-14,-86) scale(1,1)"><rect fill="#C0C0C0" stroke="none" x="303" y="711" width="155.3642578125" height="59" opacity="0.2"/></g><g transform="translate(-14,-86) scale(1,1)"><rect fill="#008400" stroke="none" x="296" y="704" width="155.3642578125" height="59"/></g><g transform="translate(-14,-86) scale(1,1)"><path fill="none" stroke="#000000" d="M 296 704 L 451.3642578125 704 L 451.3642578125 763 L 296 763 L 296 704 Z Z" stroke-miterlimit="10"/></g><g transform="translate(-14,-86) scale(1,1)"><path fill="none" stroke="#000000" d="M 296 744 L 451.3642578125 744" stroke-miterlimit="10"/></g><g transform="translate(-14,-86) scale(1,1)"><path fill="none" stroke="#000000" d="M 296 754 L 451.3642578125 754" stroke-miterlimit="10"/></g><g transform="translate(-14,-86) scale(1,1)"><g><path fill="none" stroke="none"/><text fill="#000000" stroke="none" font-family="Arial" font-size="13px" font-style="normal" font-weight="bold" text-decoration="none" x="311.68212890625" y="723.5">BatteryMonitorLogger</text></g></g><g transform="translate(-14,-86) scale(1,1)"><g><path fill="none" stroke="none"/><text fill="#000000" stroke="none" font-family="Arial" font-size="13px" font-style="normal" font-weight="normal" text-decoration="none" x="386.3642578125" y="738.5">{Phase=2}</text></g></g><g transform="translate(-14,-86) scale(1,1)"><rect fill="#C0C0C0" stroke="none" x="31" y="103" width="149.34033203125" height="54" opacity="0.2"/></g><g transform="translate(-14,-86) scale(1,1)"><rect fill="#ffffff" stroke="none" x="24" y="96" width="149.34033203125" height="54"/></g><g transform="translate(-14,-86) scale(1,1)"><path fill="none" stroke="#000000" d="M 24 96 L 173.34033203125 96 L 173.34033203125 150 L 24 150 L 24 96 Z Z" stroke-miterlimit="10"/></g><g transform="translate(-14,-86) scale(1,1)"><g><path fill="none" stroke="none"/><text fill="#000000" stroke="none" font-family="Arial" font-size="13px" font-style="italic" font-weight="bold" text-decoration="none" x="48.670166015625" y="115.5">MCMasterDevice</text></g></g><g transform="translate(-14,-86) scale(1,1)"><g><path fill="none" stroke="none"/><text fill="#000000" stroke="none" font-family="Arial" font-size="13px" font-style="normal" font-weight="normal" text-decoration="none" x="36.170166015625" y="130.5">(from MicroController)</text></g></g><g transform="translate(-14,-86) scale(1,1)"><g><path fill="none" stroke="none"/><text fill="#000000" stroke="none" font-family="Arial" font-size="13px" font-style="normal" font-weight="normal" text-decoration="none" x="108.34033203125" y="145.5">{Phase=1}</text></g></g><g transform="translate(-14,-86) scale(1,1)"><path fill="none" stroke="#000000" d="M 287 169 L 174 142" stroke-miterlimit="10"/></g><g transform="translate(-14,-86) scale(1,1)"><path fill="#FFFFFF" stroke="none" d="M 195.72541802667195 138.53500193847697 L 174 142 L 191.81231403687335 154.91206678467103"/></g><g transform="translate(-14,-86) scale(1,1)"><path fill="none" stroke="#000000" d="M 195.72541802667195 138.53500193847697 L 174 142 L 191.81231403687335 154.91206678467103 L 195.72541802667195 138.53500193847697" stroke-miterlimit="10"/></g><g transform="translate(-14,-86) scale(1,1)"><rect fill="#C0C0C0" stroke="none" x="39" y="567" width="149.34033203125" height="54" opacity="0.2"/></g><g transform="translate(-14,-86) scale(1,1)"><rect fill="#ffffff" stroke="none" x="32" y="560" width="149.34033203125" height="54"/></g><g transform="translate(-14,-86) scale(1,1)"><path fill="none" stroke="#000000" d="M 32 560 L 181.34033203125 560 L 181.34033203125 614 L 32 614 L 32 560 Z Z" stroke-miterlimit="10"/></g><g transform="translate(-14,-86) scale(1,1)"><g><path fill="none" stroke="none"/><text fill="#000000" stroke="none" font-family="Arial" font-size="13px" font-style="normal" font-weight="bold" text-decoration="none" x="62.170166015625" y="579.5">MCInputDevice</text></g></g><g transform="translate(-14,-86) scale(1,1)"><g><path fill="none" stroke="none"/><text fill="#000000" stroke="none" font-family="Arial" font-size="13px" font-style="normal" font-weight="normal" text-decoration="none" x="44.170166015625" y="594.5">(from MicroController)</text></g></g><g transform="translate(-14,-86) scale(1,1)"><g><path fill="none" stroke="none"/><text fill="#000000" stroke="none" font-family="Arial" font-size="13px" font-style="normal" font-weight="normal" text-decoration="none" x="116.34033203125" y="609.5">{Phase=1}</text></g></g><g transform="translate(-14,-86) scale(1,1)"><path fill="none" stroke="#000000" d="M 300 465 L 151 559" stroke-miterlimit="10"/></g><g transform="translate(-14,-86) scale(1,1)"><path fill="#FFFFFF" stroke="none" d="M 163.69822901347646 541.0346171785485 L 151 559 L 172.68244786414965 555.2755598248283"/></g><g transform="translate(-14,-86) scale(1,1)"><path fill="none" stroke="#000000" d="M 163.69822901347646 541.0346171785485 L 151 559 L 172.68244786414965 555.2755598248283 L 163.69822901347646 541.0346171785485" stroke-miterlimit="10"/></g><g transform="translate(-14,-86) scale(1,1)"><path fill="none" stroke="#000000" d="M 295 537 L 182 567" stroke-miterlimit="10"/></g><g transform="translate(-14,-86) scale(1,1)"><path fill="#FFFFFF" stroke="none" d="M 199.48451625470733 553.6474088155567 L 182 567 L 203.8051277824016 569.9217122365384"/></g><g transform="translate(-14,-86) scale(1,1)"><path fill="none" stroke="#000000" d="M 199.48451625470733 553.6474088155567 L 182 567 L 203.8051277824016 569.9217122365384 L 199.48451625470733 553.6474088155567" stroke-miterlimit="10"/></g><g transform="translate(-14,-86) scale(1,1)"><path fill="none" stroke="#000000" d="M 295 588 L 182 588" stroke-miterlimit="10"/></g><g transform="translate(-14,-86) scale(1,1)"><path fill="#FFFFFF" stroke="none" d="M 202.3253497152483 579.580964487968 L 182 588 L 202.3253497152483 596.419035512032"/></g><g transform="translate(-14,-86) scale(1,1)"><path fill="none" stroke="#000000" d="M 202.3253497152483 579.580964487968 L 182 588 L 202.3253497152483 596.419035512032 L 202.3253497152483 579.580964487968" stroke-miterlimit="10"/></g><g transform="translate(-14,-86) scale(1,1)"><path fill="none" stroke="#000000" d="M 295 640 L 182 608" stroke-miterlimit="10"/></g><g transform="translate(-14,-86) scale(1,1)"><path fill="#FFFFFF" stroke="none" d="M 203.85026325842617 605.4375801402832 L 182 608 L 199.26237377979726 621.6385648616916"/></g><g transform="translate(-14,-86) scale(1,1)"><path fill="none" stroke="#000000" d="M 203.85026325842617 605.4375801402832 L 182 608 L 199.26237377979726 621.6385648616916 L 203.85026325842617 605.4375801402832" stroke-miterlimit="10"/></g><g transform="translate(-14,-86) scale(1,1)"><path fill="none" stroke="#000000" d="M 318 703 L 157 615" stroke-miterlimit="10"/></g><g transform="translate(-14,-86) scale(1,1)"><path fill="#FFFFFF" stroke="none" d="M 178.8729621132185 617.3608321400955 L 157 615 L 170.7971594193886 632.1358802503979"/></g><g transform="translate(-14,-86) scale(1,1)"><path fill="none" stroke="#000000" d="M 178.8729621132185 617.3608321400955 L 157 615 L 170.7971594193886 632.1358802503979 L 178.8729621132185 617.3608321400955" stroke-miterlimit="10"/></g></g></svg>