<svg version="1.1" xmlns="http://www.w3.org/2000/svg" xmlns:xlink="http://www.w3.org/1999/xlink" width="707.9462890625" height="673"><defs/><g><g transform="translate(-78,-22) scale(1,1)"><rect fill="#ffffff" stroke="none" x="336" y="160" width="74" height="45"/></g><g transform="translate(-78,-22) scale(1,1)"><path fill="none" stroke="#000000" d="M 336 160 L 410 160 L 410 205 L 336 205 L 336 160 Z Z" stroke-miterlimit="10"/></g><g transform="translate(-78,-22) scale(1,1)"><g><path fill="none" stroke="none"/><text fill="#000000" stroke="none" font-family="Arial" font-size="13px" font-style="normal" font-weight="normal" text-decoration="none" x="358" y="182.5">Read</text><text fill="#000000" stroke="none" font-family="Arial" font-size="13px" font-style="normal" font-weight="normal" text-decoration="none" x="351" y="195.5">Throttle</text></g></g><g transform="translate(-78,-22) scale(1,1)"><rect fill="#ffffff" stroke="none" x="336" y="240" width="74" height="58"/></g><g transform="translate(-78,-22) scale(1,1)"><path fill="none" stroke="#000000" d="M 336 240 L 410 240 L 410 298 L 336 298 L 336 240 Z Z" stroke-miterlimit="10"/></g><g transform="translate(-78,-22) scale(1,1)"><g><path fill="none" stroke="none"/><text fill="#000000" stroke="none" font-family="Arial" font-size="13px" font-style="normal" font-weight="normal" text-decoration="none" x="358" y="262.5">Read</text><text fill="#000000" stroke="none" font-family="Arial" font-size="13px" font-style="normal" font-weight="normal" text-decoration="none" x="352" y="275.5">Battery</text><text fill="#000000" stroke="none" font-family="Arial" font-size="13px" font-style="normal" font-weight="normal" text-decoration="none" x="351" y="288.5">Voltage</text></g></g><g transform="translate(-78,-22) scale(1,1)"><rect fill="#ffffff" stroke="none" x="336" y="336" width="74" height="74"/></g><g transform="translate(-78,-22) scale(1,1)"><path fill="none" stroke="#000000" d="M 336 336 L 410 336 L 410 410 L 336 410 L 336 336 Z Z" stroke-miterlimit="10"/></g><g transform="translate(-78,-22) scale(1,1)"><g><path fill="none" stroke="none"/><text fill="#000000" stroke="none" font-family="Arial" font-size="13px" font-style="normal" font-weight="normal" text-decoration="none" x="358" y="358.5">Read</text><text fill="#000000" stroke="none" font-family="Arial" font-size="13px" font-style="normal" font-weight="normal" text-decoration="none" x="356.5" y="371.5">Motor</text><text fill="#000000" stroke="none" font-family="Arial" font-size="13px" font-style="normal" font-weight="normal" text-decoration="none" x="354.5" y="384.5">Speed</text></g></g><g transform="translate(-78,-22) scale(1,1)"><rect fill="#ffffff" stroke="none" x="336" y="448" width="74" height="66"/></g><g transform="translate(-78,-22) scale(1,1)"><path fill="none" stroke="#000000" d="M 336 448 L 410 448 L 410 514 L 336 514 L 336 448 Z Z" stroke-miterlimit="10"/></g><g transform="translate(-78,-22) scale(1,1)"><g><path fill="none" stroke="none"/><text fill="#000000" stroke="none" font-family="Arial" font-size="13px" font-style="normal" font-weight="normal" text-decoration="none" x="358" y="470.5">Read</text><text fill="#000000" stroke="none" font-family="Arial" font-size="13px" font-style="normal" font-weight="normal" text-decoration="none" x="356.5" y="483.5">Motor</text><text fill="#000000" stroke="none" font-family="Arial" font-size="13px" font-style="normal" font-weight="normal" text-decoration="none" x="352" y="496.5">Current</text></g></g><g transform="translate(-78,-22) scale(1,1)"><rect fill="#ffffff" stroke="none" x="336" y="544" width="74" height="58"/></g><g transform="translate(-78,-22) scale(1,1)"><path fill="none" stroke="#000000" d="M 336 544 L 410 544 L 410 602 L 336 602 L 336 544 Z Z" stroke-miterlimit="10"/></g><g transform="translate(-78,-22) scale(1,1)"><g><path fill="none" stroke="none"/><text fill="#000000" stroke="none" font-family="Arial" font-size="13px" font-style="normal" font-weight="normal" text-decoration="none" x="358" y="566.5">Read</text><text fill="#000000" stroke="none" font-family="Arial" font-size="13px" font-style="normal" font-weight="normal" text-decoration="none" x="352" y="579.5">Battery</text><text fill="#000000" stroke="none" font-family="Arial" font-size="13px" font-style="normal" font-weight="normal" text-decoration="none" x="351.5" y="592.5">Monitor</text></g></g><g transform="translate(-78,-22) scale(1,1)"><rect fill="#ffffff" stroke="none" x="448" y="160" width="74" height="45"/></g><g transform="translate(-78,-22) scale(1,1)"><path fill="none" stroke="#000000" d="M 448 160 L 522 160 L 522 205 L 448 205 L 448 160 Z Z" stroke-miterlimit="10"/></g><g transform="translate(-78,-22) scale(1,1)"><g><path fill="none" stroke="none"/><text fill="#000000" stroke="none" font-family="Arial" font-size="13px" font-style="normal" font-weight="normal" text-decoration="none" x="470" y="182.5">Save</text><text fill="#000000" stroke="none" font-family="Arial" font-size="13px" font-style="normal" font-weight="normal" text-decoration="none" x="464.5" y="195.5">Record</text></g></g><g transform="translate(-78,-22) scale(1,1)"><rect fill="#ffffff" stroke="none" x="448" y="248" width="74" height="45"/></g><g transform="translate(-78,-22) scale(1,1)"><path fill="none" stroke="#000000" d="M 448 248 L 522 248 L 522 293 L 448 293 L 448 248 Z Z" stroke-miterlimit="10"/></g><g transform="translate(-78,-22) scale(1,1)"><g><path fill="none" stroke="none"/><text fill="#000000" stroke="none" font-family="Arial" font-size="13px" font-style="normal" font-weight="normal" text-decoration="none" x="470" y="270.5">Save</text><text fill="#000000" stroke="none" font-family="Arial" font-size="13px" font-style="normal" font-weight="normal" text-decoration="none" x="464.5" y="283.5">Record</text></g></g><g transform="translate(-78,-22) scale(1,1)"><rect fill="#ffffff" stroke="none" x="448" y="336" width="74" height="45"/></g><g transform="translate(-78,-22) scale(1,1)"><path fill="none" stroke="#000000" d="M 448 336 L 522 336 L 522 381 L 448 381 L 448 336 Z Z" stroke-miterlimit="10"/></g><g transform="translate(-78,-22) scale(1,1)"><g><path fill="none" stroke="none"/><text fill="#000000" stroke="none" font-family="Arial" font-size="13px" font-style="normal" font-weight="normal" text-decoration="none" x="470" y="358.5">Save</text><text fill="#000000" stroke="none" font-family="Arial" font-size="13px" font-style="normal" font-weight="normal" text-decoration="none" x="464.5" y="371.5">Record</text></g></g><g transform="translate(-78,-22) scale(1,1)"><rect fill="#ffffff" stroke="none" x="448" y="448" width="74" height="45"/></g><g transform="translate(-78,-22) scale(1,1)"><path fill="none" stroke="#000000" d="M 448 448 L 522 448 L 522 493 L 448 493 L 448 448 Z Z" stroke-miterlimit="10"/></g><g transform="translate(-78,-22) scale(1,1)"><g><path fill="none" stroke="none"/><text fill="#000000" stroke="none" font-family="Arial" font-size="13px" font-style="normal" font-weight="normal" text-decoration="none" x="470" y="470.5">Save</text><text fill="#000000" stroke="none" font-family="Arial" font-size="13px" font-style="normal" font-weight="normal" text-decoration="none" x="464.5" y="483.5">Record</text></g></g><g transform="translate(-78,-22) scale(1,1)"><rect fill="#ffffff" stroke="none" x="448" y="544" width="74" height="45"/></g><g transform="translate(-78,-22) scale(1,1)"><path fill="none" stroke="#000000" d="M 448 544 L 522 544 L 522 589 L 448 589 L 448 544 Z Z" stroke-miterlimit="10"/></g><g transform="translate(-78,-22) scale(1,1)"><g><path fill="none" stroke="none"/><text fill="#000000" stroke="none" font-family="Arial" font-size="13px" font-style="normal" font-weight="normal" text-decoration="none" x="470" y="566.5">Save</text><text fill="#000000" stroke="none" font-family="Arial" font-size="13px" font-style="normal" font-weight="normal" text-decoration="none" x="464.5" y="579.5">Record</text></g></g><g transform="translate(-78,-22) scale(1,1)"><path fill="none" stroke="#000000" d="M 410 182 L 448 182" stroke-miterlimit="10"/></g><g transform="translate(-78,-22) scale(1,1)"><path fill="#000000" stroke="none" d="M 437.83732514237585 186.209517756016 L 448 182 L 437.83732514237585 177.790482243984"/></g><g transform="translate(-78,-22) scale(1,1)"><path fill="none" stroke="#000000" d="M 437.83732514237585 186.209517756016 L 448 182 L 437.83732514237585 177.790482243984 L 437.83732514237585 186.209517756016" stroke-miterlimit="10"/></g><g transform="translate(-78,-22) scale(1,1)"><path fill="none" stroke="#000000" d="M 455 205 L 455 216 M 455 216 A 8 8 0 0 1 447 224 L 384 224 M 384 224 A 8 8 0 0 0 376 232 L 376 240" stroke-miterlimit="10"/></g><g transform="translate(-78,-22) scale(1,1)"><path fill="#000000" stroke="none" d="M 371.790482243984 229.83732514237585 L 376 240 L 380.209517756016 229.83732514237585"/></g><g transform="translate(-78,-22) scale(1,1)"><path fill="none" stroke="#000000" d="M 371.790482243984 229.83732514237585 L 376 240 L 380.209517756016 229.83732514237585 L 371.790482243984 229.83732514237585" stroke-miterlimit="10"/></g><g transform="translate(-78,-22) scale(1,1)"><path fill="none" stroke="#000000" d="M 410 270 L 448 270" stroke-miterlimit="10"/></g><g transform="translate(-78,-22) scale(1,1)"><path fill="#000000" stroke="none" d="M 437.83732514237585 274.209517756016 L 448 270 L 437.83732514237585 265.790482243984"/></g><g transform="translate(-78,-22) scale(1,1)"><path fill="none" stroke="#000000" d="M 437.83732514237585 274.209517756016 L 448 270 L 437.83732514237585 265.790482243984 L 437.83732514237585 274.209517756016" stroke-miterlimit="10"/></g><g transform="translate(-78,-22) scale(1,1)"><path fill="none" stroke="#000000" d="M 460 293 L 460 312 M 460 312 A 8 8 0 0 1 452 320 L 384 320 M 384 320 A 8 8 0 0 0 376 328 L 376 336" stroke-miterlimit="10"/></g><g transform="translate(-78,-22) scale(1,1)"><path fill="#000000" stroke="none" d="M 371.790482243984 325.83732514237585 L 376 336 L 380.209517756016 325.83732514237585"/></g><g transform="translate(-78,-22) scale(1,1)"><path fill="none" stroke="#000000" d="M 371.790482243984 325.83732514237585 L 376 336 L 380.209517756016 325.83732514237585 L 371.790482243984 325.83732514237585" stroke-miterlimit="10"/></g><g transform="translate(-78,-22) scale(1,1)"><path fill="none" stroke="#000000" d="M 410 360 L 448 360" stroke-miterlimit="10"/></g><g transform="translate(-78,-22) scale(1,1)"><path fill="#000000" stroke="none" d="M 437.83732514237585 364.209517756016 L 448 360 L 437.83732514237585 355.790482243984"/></g><g transform="translate(-78,-22) scale(1,1)"><path fill="none" stroke="#000000" d="M 437.83732514237585 364.209517756016 L 448 360 L 437.83732514237585 355.790482243984 L 437.83732514237585 364.209517756016" stroke-miterlimit="10"/></g><g transform="translate(-78,-22) scale(1,1)"><path fill="none" stroke="#000000" d="M 461 381 L 461 416 M 461 416 A 8 8 0 0 1 453 424 L 384 424 M 384 424 A 8 8 0 0 0 376 432 L 376 448" stroke-miterlimit="10"/></g><g transform="translate(-78,-22) scale(1,1)"><path fill="#000000" stroke="none" d="M 371.790482243984 437.83732514237585 L 376 448 L 380.209517756016 437.83732514237585"/></g><g transform="translate(-78,-22) scale(1,1)"><path fill="none" stroke="#000000" d="M 371.790482243984 437.83732514237585 L 376 448 L 380.209517756016 437.83732514237585 L 371.790482243984 437.83732514237585" stroke-miterlimit="10"/></g><g transform="translate(-78,-22) scale(1,1)"><path fill="none" stroke="#000000" d="M 410 472 L 448 472" stroke-miterlimit="10"/></g><g transform="translate(-78,-22) scale(1,1)"><path fill="#000000" stroke="none" d="M 437.83732514237585 476.209517756016 L 448 472 L 437.83732514237585 467.790482243984"/></g><g transform="translate(-78,-22) scale(1,1)"><path fill="none" stroke="#000000" d="M 437.83732514237585 476.209517756016 L 448 472 L 437.83732514237585 467.790482243984 L 437.83732514237585 476.209517756016" stroke-miterlimit="10"/></g><g transform="translate(-78,-22) scale(1,1)"><path fill="none" stroke="#000000" d="M 460 493 L 460 520 M 460 520 A 8 8 0 0 1 452 528 L 384 528 M 384 528 A 8 8 0 0 0 376 536 L 376 544" stroke-miterlimit="10"/></g><g transform="translate(-78,-22) scale(1,1)"><path fill="#000000" stroke="none" d="M 371.790482243984 533.8373251423759 L 376 544 L 380.209517756016 533.8373251423759"/></g><g transform="translate(-78,-22) scale(1,1)"><path fill="none" stroke="#000000" d="M 371.790482243984 533.8373251423759 L 376 544 L 380.209517756016 533.8373251423759 L 371.790482243984 533.8373251423759" stroke-miterlimit="10"/></g><g transform="translate(-78,-22) scale(1,1)"><path fill="none" stroke="#000000" d="M 410 560 L 448 560" stroke-miterlimit="10"/></g><g transform="translate(-78,-22) scale(1,1)"><path fill="#000000" stroke="none" d="M 437.83732514237585 564.209517756016 L 448 560 L 437.83732514237585 555.790482243984"/></g><g transform="translate(-78,-22) scale(1,1)"><path fill="none" stroke="#000000" d="M 437.83732514237585 564.209517756016 L 448 560 L 437.83732514237585 555.790482243984 L 437.83732514237585 564.209517756016" stroke-miterlimit="10"/></g><g transform="translate(-78,-22) scale(1,1)"><path fill="#ffffff" stroke="none" d="M 400.5 32 L 455.5 32 Q 472 32 472 48.5 L 472 47.5 Q 472 64 455.5 64 L 400.5 64 Q 384 64 384 47.5 L 384 48.5 Q 384 32 400.5 32 Z"/></g><g transform="translate(-78,-22) scale(1,1)"><path fill="none" stroke="#000000" d="M 400.5 32 L 455.5 32 Q 472 32 472 48.5 L 472 47.5 Q 472 64 455.5 64 L 400.5 64 Q 384 64 384 47.5 L 384 48.5 Q 384 32 400.5 32 Z" stroke-miterlimit="10"/></g><g transform="translate(-78,-22) scale(1,1)"><g><path fill="none" stroke="none"/><text fill="#000000" stroke="none" font-family="Arial" font-size="13px" font-style="normal" font-weight="normal" text-decoration="none" x="399.5" y="54.5">Power On</text></g></g><g transform="translate(-78,-22) scale(1,1)"><rect fill="#ffffff" stroke="none" x="392" y="88" width="74" height="32"/></g><g transform="translate(-78,-22) scale(1,1)"><path fill="none" stroke="#000000" d="M 392 88 L 466 88 L 466 120 L 392 120 L 392 88 Z Z" stroke-miterlimit="10"/></g><g transform="translate(-78,-22) scale(1,1)"><g><path fill="none" stroke="none"/><text fill="#000000" stroke="none" font-family="Arial" font-size="13px" font-style="normal" font-weight="normal" text-decoration="none" x="412" y="110.5">Setup</text></g></g><g transform="translate(-78,-22) scale(1,1)"><path fill="none" stroke="#000000" d="M 428 64 L 428 88" stroke-miterlimit="10"/></g><g transform="translate(-78,-22) scale(1,1)"><path fill="#000000" stroke="none" d="M 423.790482243984 77.83732514237585 L 428 88 L 432.209517756016 77.83732514237585"/></g><g transform="translate(-78,-22) scale(1,1)"><path fill="none" stroke="#000000" d="M 423.790482243984 77.83732514237585 L 428 88 L 432.209517756016 77.83732514237585 L 423.790482243984 77.83732514237585" stroke-miterlimit="10"/></g><g transform="translate(-78,-22) scale(1,1)"><path fill="none" stroke="#000000" d="M 392 104 L 384 104 M 384 104 A 8 8 0 0 0 376 112 L 376 160" stroke-miterlimit="10"/></g><g transform="translate(-78,-22) scale(1,1)"><path fill="#000000" stroke="none" d="M 371.790482243984 149.83732514237585 L 376 160 L 380.209517756016 149.83732514237585"/></g><g transform="translate(-78,-22) scale(1,1)"><path fill="none" stroke="#000000" d="M 371.790482243984 149.83732514237585 L 376 160 L 380.209517756016 149.83732514237585 L 371.790482243984 149.83732514237585" stroke-miterlimit="10"/></g><g transform="translate(-78,-22) scale(1,1)"><rect fill="#ffffff" stroke="none" x="392" y="640" width="74" height="45"/></g><g transform="translate(-78,-22) scale(1,1)"><path fill="none" stroke="#000000" d="M 392 640 L 466 640 L 466 685 L 392 685 L 392 640 Z Z" stroke-miterlimit="10"/></g><g transform="translate(-78,-22) scale(1,1)"><g><path fill="none" stroke="none"/><text fill="#000000" stroke="none" font-family="Arial" font-size="13px" font-style="normal" font-weight="normal" text-decoration="none" x="403.5" y="662.5">Clean up</text></g></g><g transform="translate(-78,-22) scale(1,1)"><path fill="none" stroke="#000000" d="M 448 576 L 440 576 M 440 576 A 8 8 0 0 0 432 584 L 432 640" stroke-miterlimit="10"/></g><g transform="translate(-78,-22) scale(1,1)"><path fill="#000000" stroke="none" d="M 427.790482243984 629.8373251423759 L 432 640 L 436.209517756016 629.8373251423759"/></g><g transform="translate(-78,-22) scale(1,1)"><path fill="none" stroke="#000000" d="M 427.790482243984 629.8373251423759 L 432 640 L 436.209517756016 629.8373251423759 L 427.790482243984 629.8373251423759" stroke-miterlimit="10"/></g><g transform="translate(-78,-22) scale(1,1)"><path fill="none" stroke="#000000" d="M 392 656 L 272 656 M 272 656 A 8 8 0 0 1 264 648 L 264 192 M 264 192 A 8 8 0 0 1 272 184 L 336 184" stroke-miterlimit="10"/></g><g transform="translate(-78,-22) scale(1,1)"><path fill="#000000" stroke="none" d="M 325.83732514237585 188.209517756016 L 336 184 L 325.83732514237585 179.790482243984"/></g><g transform="translate(-78,-22) scale(1,1)"><path fill="none" stroke="#000000" d="M 325.83732514237585 188.209517756016 L 336 184 L 325.83732514237585 179.790482243984 L 325.83732514237585 188.209517756016" stroke-miterlimit="10"/></g><g transform="translate(-78,-22) scale(1,1)"><path fill="#ffffff" stroke="none" d="M 632 104 L 725 104 L 735 114 L 735 166 L 632 166 L 632 104"/></g><g transform="translate(-78,-22) scale(1,1)"><path fill="none" stroke="#000000" d="M 632 104 L 725 104 L 735 114 L 735 166 L 632 166 L 632 104 L 632 104" stroke-miterlimit="10"/></g><g transform="translate(-78,-22) scale(1,1)"><path fill="none" stroke="#000000" d="M 725 104 L 725 114 L 735 114 L 725 104" stroke-miterlimit="10"/></g><g transform="translate(-78,-22) scale(1,1)"><g><path fill="none" stroke="none"/><text fill="#000000" stroke="none" font-family="Arial" font-size="13px" font-style="normal" font-weight="normal" text-decoration="none" x="637" y="122">Note that power</text><text fill="#000000" stroke="none" font-family="Arial" font-size="13px" font-style="normal" font-weight="normal" text-decoration="none" x="637" y="135">off can happen</text><text fill="#000000" stroke="none" font-family="Arial" font-size="13px" font-style="normal" font-weight="normal" text-decoration="none" x="637" y="148">at any time</text></g></g><g transform="translate(-78,-22) scale(1,1)"><path fill="#ffffff" stroke="none" d="M 88 352 L 187.50146484375 352 L 197.50146484375 362 L 197.50146484375 401 L 88 401 L 88 352"/></g><g transform="translate(-78,-22) scale(1,1)"><path fill="none" stroke="#000000" d="M 88 352 L 187.50146484375 352 L 197.50146484375 362 L 197.50146484375 401 L 88 401 L 88 352 L 88 352" stroke-miterlimit="10"/></g><g transform="translate(-78,-22) scale(1,1)"><path fill="none" stroke="#000000" d="M 187.50146484375 352 L 187.50146484375 362 L 197.50146484375 362 L 187.50146484375 352" stroke-miterlimit="10"/></g><g transform="translate(-78,-22) scale(1,1)"><g><path fill="none" stroke="none"/><text fill="#000000" stroke="none" font-family="Arial" font-size="13px" font-style="normal" font-weight="normal" text-decoration="none" x="93" y="370">Using</text><text fill="#000000" stroke="none" font-family="Arial" font-size="13px" font-style="normal" font-weight="normal" text-decoration="none" x="93" y="383">corresponding</text><text fill="#000000" stroke="none" font-family="Arial" font-size="13px" font-style="normal" font-weight="normal" text-decoration="none" x="93" y="396">InputDevice</text></g></g><g transform="translate(-78,-22) scale(1,1)"><path fill="none" stroke="#000000" d="M 345 206 L 174 351" stroke-miterlimit="10" stroke-dasharray="3"/></g><g transform="translate(-78,-22) scale(1,1)"><path fill="none" stroke="#000000" d="M 335 287 L 198 351" stroke-miterlimit="10" stroke-dasharray="3"/></g><g transform="translate(-78,-22) scale(1,1)"><path fill="none" stroke="#000000" d="M 335 374 L 200 376" stroke-miterlimit="10" stroke-dasharray="3"/></g><g transform="translate(-78,-22) scale(1,1)"><path fill="none" stroke="#000000" d="M 335 464 L 200 403" stroke-miterlimit="10" stroke-dasharray="3"/></g><g transform="translate(-78,-22) scale(1,1)"><path fill="none" stroke="#000000" d="M 338 543 L 174 403" stroke-miterlimit="10" stroke-dasharray="3"/></g><g transform="translate(-78,-22) scale(1,1)"><path fill="#ffffff" stroke="none" d="M 680 328 L 764.9462890625 328 L 774.9462890625 338 L 774.9462890625 390 L 680 390 L 680 328"/></g><g transform="translate(-78,-22) scale(1,1)"><path fill="none" stroke="#000000" d="M 680 328 L 764.9462890625 328 L 774.9462890625 338 L 774.9462890625 390 L 680 390 L 680 328 L 680 328" stroke-miterlimit="10"/></g><g transform="translate(-78,-22) scale(1,1)"><path fill="none" stroke="#000000" d="M 764.9462890625 328 L 764.9462890625 338 L 774.9462890625 338 L 764.9462890625 328" stroke-miterlimit="10"/></g><g transform="translate(-78,-22) scale(1,1)"><g><path fill="none" stroke="none"/><text fill="#000000" stroke="none" font-family="Arial" font-size="13px" font-style="normal" font-weight="normal" text-decoration="none" x="685" y="346">Using data's</text><text fill="#000000" stroke="none" font-family="Arial" font-size="13px" font-style="normal" font-weight="normal" text-decoration="none" x="685" y="359">serialization</text><text fill="#000000" stroke="none" font-family="Arial" font-size="13px" font-style="normal" font-weight="normal" text-decoration="none" x="685" y="372">method</text></g></g><g transform="translate(-78,-22) scale(1,1)"><path fill="none" stroke="#000000" d="M 518 206 L 683 327" stroke-miterlimit="10" stroke-dasharray="3"/></g><g transform="translate(-78,-22) scale(1,1)"><path fill="none" stroke="#000000" d="M 523 284 L 679 341" stroke-miterlimit="10" stroke-dasharray="3"/></g><g transform="translate(-78,-22) scale(1,1)"><path fill="none" stroke="#000000" d="M 523 358 L 679 359" stroke-miterlimit="10" stroke-dasharray="3"/></g><g transform="translate(-78,-22) scale(1,1)"><path fill="none" stroke="#000000" d="M 523 453 L 679 381" stroke-miterlimit="10" stroke-dasharray="3"/></g><g transform="translate(-78,-22) scale(1,1)"><path fill="none" stroke="#000000" d="M 512 543 L 688 392" stroke-miterlimit="10" stroke-dasharray="3"/></g></g></svg>