<svg version="1.1" xmlns="http://www.w3.org/2000/svg" xmlns:xlink="http://www.w3.org/1999/xlink" width="397.681640625" height="252"><defs/><g><g transform="translate(-110,-134) scale(1,1)"><rect fill="#C0C0C0" stroke="none" x="135" y="151" width="129" height="117" opacity="0.2"/></g><g transform="translate(-110,-134) scale(1,1)"><rect fill="#00ad00" stroke="none" x="128" y="144" width="129" height="117"/></g><g transform="translate(-110,-134) scale(1,1)"><path fill="none" stroke="#000000" d="M 128 144 L 257 144 L 257 261 L 128 261 L 128 144 Z Z" stroke-miterlimit="10"/></g><g transform="translate(-110,-134) scale(1,1)"><path fill="none" stroke="#000000" d="M 128 184 L 257 184" stroke-miterlimit="10"/></g><g transform="translate(-110,-134) scale(1,1)"><path fill="none" stroke="#000000" d="M 128 194 L 257 194" stroke-miterlimit="10"/></g><g transform="translate(-110,-134) scale(1,1)"><g><path fill="none" stroke="none"/><text fill="#000000" stroke="none" font-family="Arial" font-size="13px" font-style="italic" font-weight="bold" text-decoration="none" x="146" y="163.5">MCInputHandler</text></g></g><g transform="translate(-110,-134) scale(1,1)"><g><path fill="none" stroke="none"/><text fill="#000000" stroke="none" font-family="Arial" font-size="13px" font-style="normal" font-weight="normal" text-decoration="none" x="192" y="178.5">{Phase=1}</text></g></g><g transform="translate(-110,-134) scale(1,1)"><g><path fill="none" stroke="none"/><text fill="#000000" stroke="none" font-family="Arial" font-size="13px" font-style="normal" font-weight="normal" text-decoration="none" x="133" y="211.5">+send_int()</text></g></g><g transform="translate(-110,-134) scale(1,1)"><g><path fill="none" stroke="none"/><text fill="#000000" stroke="none" font-family="Arial" font-size="13px" font-style="normal" font-weight="normal" text-decoration="none" x="133" y="226.5">+send_double()</text></g></g><g transform="translate(-110,-134) scale(1,1)"><g><path fill="none" stroke="none"/><text fill="#000000" stroke="none" font-family="Arial" font-size="13px" font-style="normal" font-weight="normal" text-decoration="none" x="133" y="241.5">+send_string()</text></g></g><g transform="translate(-110,-134) scale(1,1)"><g><path fill="none" stroke="none"/><text fill="#000000" stroke="none" font-family="Arial" font-size="13px" font-style="italic" font-weight="normal" text-decoration="none" x="133" y="256.5">-send_json()</text></g></g><g transform="translate(-110,-134) scale(1,1)"><rect fill="#C0C0C0" stroke="none" x="375" y="199" width="129.681640625" height="72" opacity="0.2"/></g><g transform="translate(-110,-134) scale(1,1)"><rect fill="#d10000" stroke="none" x="368" y="192" width="129.681640625" height="72"/></g><g transform="translate(-110,-134) scale(1,1)"><path fill="none" stroke="#000000" d="M 368 192 L 497.681640625 192 L 497.681640625 264 L 368 264 L 368 192 Z Z" stroke-miterlimit="10"/></g><g transform="translate(-110,-134) scale(1,1)"><path fill="none" stroke="#000000" d="M 368 232 L 497.681640625 232" stroke-miterlimit="10"/></g><g transform="translate(-110,-134) scale(1,1)"><path fill="none" stroke="#000000" d="M 368 242 L 497.681640625 242" stroke-miterlimit="10"/></g><g transform="translate(-110,-134) scale(1,1)"><g><path fill="none" stroke="none"/><text fill="#000000" stroke="none" font-family="Arial" font-size="13px" font-style="normal" font-weight="bold" text-decoration="none" x="381.3408203125" y="211.5">MCOutputHandler</text></g></g><g transform="translate(-110,-134) scale(1,1)"><g><path fill="none" stroke="none"/><text fill="#000000" stroke="none" font-family="Arial" font-size="13px" font-style="normal" font-weight="normal" text-decoration="none" x="432.681640625" y="226.5">{Phase=3}</text></g></g><g transform="translate(-110,-134) scale(1,1)"><g><path fill="none" stroke="none"/><text fill="#000000" stroke="none" font-family="Arial" font-size="13px" font-style="normal" font-weight="normal" text-decoration="none" x="373" y="259.5">+get_data()</text></g></g><g transform="translate(-110,-134) scale(1,1)"><rect fill="#C0C0C0" stroke="none" x="127" y="311" width="139.09228515625" height="72" opacity="0.2"/></g><g transform="translate(-110,-134) scale(1,1)"><rect fill="#00ad00" stroke="none" x="120" y="304" width="139.09228515625" height="72"/></g><g transform="translate(-110,-134) scale(1,1)"><path fill="none" stroke="#000000" d="M 120 304 L 259.09228515625 304 L 259.09228515625 376 L 120 376 L 120 304 Z Z" stroke-miterlimit="10"/></g><g transform="translate(-110,-134) scale(1,1)"><path fill="none" stroke="#000000" d="M 120 344 L 259.09228515625 344" stroke-miterlimit="10"/></g><g transform="translate(-110,-134) scale(1,1)"><path fill="none" stroke="#000000" d="M 120 367 L 259.09228515625 367" stroke-miterlimit="10"/></g><g transform="translate(-110,-134) scale(1,1)"><g><path fill="none" stroke="none"/><text fill="#000000" stroke="none" font-family="Arial" font-size="13px" font-style="normal" font-weight="bold" text-decoration="none" x="133.046142578125" y="323.5">MCI2CInputHandler</text></g></g><g transform="translate(-110,-134) scale(1,1)"><g><path fill="none" stroke="none"/><text fill="#000000" stroke="none" font-family="Arial" font-size="13px" font-style="normal" font-weight="normal" text-decoration="none" x="194.09228515625" y="338.5">{Phase=1}</text></g></g><g transform="translate(-110,-134) scale(1,1)"><g><path fill="none" stroke="none"/><text fill="#000000" stroke="none" font-family="Arial" font-size="13px" font-style="normal" font-weight="normal" text-decoration="none" x="125" y="361.5">-address: Integer</text></g></g><g transform="translate(-110,-134) scale(1,1)"><path fill="none" stroke="#000000" d="M 190 303 L 191 262" stroke-miterlimit="10"/></g><g transform="translate(-110,-134) scale(1,1)"><path fill="#FFFFFF" stroke="none" d="M 198.92093960525153 282.52458807796046 L 191 262 L 182.08787469725604 282.1140255192289"/></g><g transform="translate(-110,-134) scale(1,1)"><path fill="none" stroke="#000000" d="M 198.92093960525153 282.52458807796046 L 191 262 L 182.08787469725604 282.1140255192289 L 198.92093960525153 282.52458807796046" stroke-miterlimit="10"/></g></g></svg>