<svg version="1.1" xmlns="http://www.w3.org/2000/svg" xmlns:xlink="http://www.w3.org/1999/xlink" width="788" height="620"><defs/><g><g transform="translate(-14,-46) scale(1,1)"><rect fill="#C0C0C0" stroke="none" x="143" y="343" width="186.95654296875" height="119" opacity="0.2"/></g><g transform="translate(-14,-46) scale(1,1)"><rect fill="#008400" stroke="none" x="136" y="336" width="186.95654296875" height="119"/></g><g transform="translate(-14,-46) scale(1,1)"><path fill="none" stroke="#000000" d="M 136 336 L 322.95654296875 336 L 322.95654296875 455 L 136 455 L 136 336 Z Z" stroke-miterlimit="10"/></g><g transform="translate(-14,-46) scale(1,1)"><path fill="none" stroke="#000000" d="M 136 376 L 322.95654296875 376" stroke-miterlimit="10"/></g><g transform="translate(-14,-46) scale(1,1)"><path fill="none" stroke="#000000" d="M 136 399 L 322.95654296875 399" stroke-miterlimit="10"/></g><g transform="translate(-14,-46) scale(1,1)"><g><path fill="none" stroke="none"/><text fill="#000000" stroke="none" font-family="Arial" font-size="13px" font-style="italic" font-weight="bold" text-decoration="none" x="199.478271484375" y="355.5">MCDevice</text></g></g><g transform="translate(-14,-46) scale(1,1)"><g><path fill="none" stroke="none"/><text fill="#000000" stroke="none" font-family="Arial" font-size="13px" font-style="normal" font-weight="normal" text-decoration="none" x="257.95654296875" y="370.5">{Phase=1}</text></g></g><g transform="translate(-14,-46) scale(1,1)"><g><path fill="none" stroke="none"/><text fill="#000000" stroke="none" font-family="Arial" font-size="13px" font-style="normal" font-weight="normal" text-decoration="none" x="141" y="393.5">-Connection: MCConnection</text></g></g><g transform="translate(-14,-46) scale(1,1)"><rect fill="#C0C0C0" stroke="none" x="263" y="543" width="190" height="120" opacity="0.2"/></g><g transform="translate(-14,-46) scale(1,1)"><rect fill="#008400" stroke="none" x="256" y="536" width="190" height="120"/></g><g transform="translate(-14,-46) scale(1,1)"><path fill="none" stroke="#000000" d="M 256 536 L 446 536 L 446 656 L 256 656 L 256 536 Z Z" stroke-miterlimit="10"/></g><g transform="translate(-14,-46) scale(1,1)"><path fill="none" stroke="#000000" d="M 256 576 L 446 576" stroke-miterlimit="10"/></g><g transform="translate(-14,-46) scale(1,1)"><path fill="none" stroke="#000000" d="M 256 586 L 446 586" stroke-miterlimit="10"/></g><g transform="translate(-14,-46) scale(1,1)"><g><path fill="none" stroke="none"/><text fill="#000000" stroke="none" font-family="Arial" font-size="13px" font-style="normal" font-weight="bold" text-decoration="none" x="306.5" y="555.5">MCInputDevice</text></g></g><g transform="translate(-14,-46) scale(1,1)"><g><path fill="none" stroke="none"/><text fill="#000000" stroke="none" font-family="Arial" font-size="13px" font-style="normal" font-weight="normal" text-decoration="none" x="381" y="570.5">{Phase=1}</text></g></g><g transform="translate(-14,-46) scale(1,1)"><g><path fill="none" stroke="none"/><text fill="#000000" stroke="none" font-family="Arial" font-size="13px" font-style="italic" font-weight="normal" text-decoration="none" x="261" y="603.5">+get_next(): MCData</text></g></g><g transform="translate(-14,-46) scale(1,1)"><rect fill="#C0C0C0" stroke="none" x="31" y="543" width="168" height="120" opacity="0.2"/></g><g transform="translate(-14,-46) scale(1,1)"><rect fill="#d10000" stroke="none" x="24" y="536" width="168" height="120"/></g><g transform="translate(-14,-46) scale(1,1)"><path fill="none" stroke="#000000" d="M 24 536 L 192 536 L 192 656 L 24 656 L 24 536 Z Z" stroke-miterlimit="10"/></g><g transform="translate(-14,-46) scale(1,1)"><path fill="none" stroke="#000000" d="M 24 576 L 192 576" stroke-miterlimit="10"/></g><g transform="translate(-14,-46) scale(1,1)"><path fill="none" stroke="#000000" d="M 24 586 L 192 586" stroke-miterlimit="10"/></g><g transform="translate(-14,-46) scale(1,1)"><g><path fill="none" stroke="none"/><text fill="#000000" stroke="none" font-family="Arial" font-size="13px" font-style="normal" font-weight="bold" text-decoration="none" x="58.5" y="555.5">MCOutputDevice</text></g></g><g transform="translate(-14,-46) scale(1,1)"><g><path fill="none" stroke="none"/><text fill="#000000" stroke="none" font-family="Arial" font-size="13px" font-style="normal" font-weight="normal" text-decoration="none" x="127" y="570.5">{Phase=3}</text></g></g><g transform="translate(-14,-46) scale(1,1)"><path fill="none" stroke="#000000" d="M 145 535 L 192 456" stroke-miterlimit="10"/></g><g transform="translate(-14,-46) scale(1,1)"><path fill="#FFFFFF" stroke="none" d="M 188.84317474132243 477.772332311587 L 192 456 L 174.37242363279796 469.16315127233827"/></g><g transform="translate(-14,-46) scale(1,1)"><path fill="none" stroke="#000000" d="M 188.84317474132243 477.772332311587 L 192 456 L 174.37242363279796 469.16315127233827 L 188.84317474132243 477.772332311587" stroke-miterlimit="10"/></g><g transform="translate(-14,-46) scale(1,1)"><path fill="none" stroke="#000000" d="M 314 535 L 266 456" stroke-miterlimit="10"/></g><g transform="translate(-14,-46) scale(1,1)"><path fill="#FFFFFF" stroke="none" d="M 283.74919231978055 468.9986988577874 L 266 456 L 269.3591061409577 477.7420423588443"/></g><g transform="translate(-14,-46) scale(1,1)"><path fill="none" stroke="#000000" d="M 283.74919231978055 468.9986988577874 L 266 456 L 269.3591061409577 477.7420423588443 L 283.74919231978055 468.9986988577874" stroke-miterlimit="10"/></g><g transform="translate(-14,-46) scale(1,1)"><rect fill="#C0C0C0" stroke="none" x="487" y="343" width="113" height="117" opacity="0.2"/></g><g transform="translate(-14,-46) scale(1,1)"><rect fill="#008400" stroke="none" x="480" y="336" width="113" height="117"/></g><g transform="translate(-14,-46) scale(1,1)"><path fill="none" stroke="#000000" d="M 480 336 L 593 336 L 593 453 L 480 453 L 480 336 Z Z" stroke-miterlimit="10"/></g><g transform="translate(-14,-46) scale(1,1)"><path fill="none" stroke="#000000" d="M 480 376 L 593 376" stroke-miterlimit="10"/></g><g transform="translate(-14,-46) scale(1,1)"><path fill="none" stroke="#000000" d="M 480 386 L 593 386" stroke-miterlimit="10"/></g><g transform="translate(-14,-46) scale(1,1)"><g><path fill="none" stroke="none"/><text fill="#000000" stroke="none" font-family="Arial" font-size="13px" font-style="italic" font-weight="bold" text-decoration="none" x="486.5" y="355.5">MCMasterDevice</text></g></g><g transform="translate(-14,-46) scale(1,1)"><g><path fill="none" stroke="none"/><text fill="#000000" stroke="none" font-family="Arial" font-size="13px" font-style="normal" font-weight="normal" text-decoration="none" x="528" y="370.5">{Phase=1}</text></g></g><g transform="translate(-14,-46) scale(1,1)"><g><path fill="none" stroke="none"/><text fill="#000000" stroke="none" font-family="Arial" font-size="13px" font-style="italic" font-weight="normal" text-decoration="none" x="485" y="403.5">-loop()</text></g></g><g transform="translate(-14,-46) scale(1,1)"><g><path fill="none" stroke="none"/><text fill="#000000" stroke="none" font-family="Arial" font-size="13px" font-style="italic" font-weight="normal" text-decoration="none" x="485" y="418.5">-build()</text></g></g><g transform="translate(-14,-46) scale(1,1)"><g><path fill="none" stroke="none"/><text fill="#000000" stroke="none" font-family="Arial" font-size="13px" font-style="normal" font-weight="normal" text-decoration="none" x="485" y="433.5">-setup()</text></g></g><g transform="translate(-14,-46) scale(1,1)"><g><path fill="none" stroke="none"/><text fill="#000000" stroke="none" font-family="Arial" font-size="13px" font-style="normal" font-weight="normal" text-decoration="none" x="485" y="448.5">-teardown()</text></g></g><g transform="translate(-14,-46) scale(1,1)"><rect fill="#C0C0C0" stroke="none" x="143" y="63" width="177.80322265625" height="135" opacity="0.2"/></g><g transform="translate(-14,-46) scale(1,1)"><rect fill="#008400" stroke="none" x="136" y="56" width="177.80322265625" height="135"/></g><g transform="translate(-14,-46) scale(1,1)"><path fill="none" stroke="#000000" d="M 136 56 L 313.80322265625 56 L 313.80322265625 191 L 136 191 L 136 56 Z Z" stroke-miterlimit="10"/></g><g transform="translate(-14,-46) scale(1,1)"><path fill="none" stroke="#000000" d="M 136 96 L 313.80322265625 96" stroke-miterlimit="10"/></g><g transform="translate(-14,-46) scale(1,1)"><path fill="none" stroke="#000000" d="M 136 106 L 313.80322265625 106" stroke-miterlimit="10"/></g><g transform="translate(-14,-46) scale(1,1)"><g><path fill="none" stroke="none"/><text fill="#000000" stroke="none" font-family="Arial" font-size="13px" font-style="italic" font-weight="bold" text-decoration="none" x="182.401611328125" y="75.5">MCConnection</text></g></g><g transform="translate(-14,-46) scale(1,1)"><g><path fill="none" stroke="none"/><text fill="#000000" stroke="none" font-family="Arial" font-size="13px" font-style="normal" font-weight="normal" text-decoration="none" x="248.80322265625" y="90.5">{Phase=1}</text></g></g><g transform="translate(-14,-46) scale(1,1)"><g><path fill="none" stroke="none"/><text fill="#000000" stroke="none" font-family="Arial" font-size="13px" font-style="italic" font-weight="normal" text-decoration="none" x="141" y="123.5">+send_data(value: MCData)</text></g></g><g transform="translate(-14,-46) scale(1,1)"><g><path fill="none" stroke="none"/><text fill="#000000" stroke="none" font-family="Arial" font-size="13px" font-style="italic" font-weight="normal" text-decoration="none" x="141" y="138.5">+get_data(): MCData</text></g></g><g transform="translate(-14,-46) scale(1,1)"><g><path fill="none" stroke="none"/><text fill="#000000" stroke="none" font-family="Arial" font-size="13px" font-style="italic" font-weight="normal" text-decoration="none" x="141" y="153.5">+is_connected(): Boolean</text></g></g><g transform="translate(-14,-46) scale(1,1)"><path fill="none" stroke="#000000" d="M 479 394 L 324 395" stroke-miterlimit="10"/></g><g transform="translate(-14,-46) scale(1,1)"><path fill="#FFFFFF" stroke="none" d="M 344.2706114965324 386.4500111370454 L 324 395 L 344.37924195206074 403.28773174393143"/></g><g transform="translate(-14,-46) scale(1,1)"><path fill="none" stroke="#000000" d="M 344.2706114965324 386.4500111370454 L 324 395 L 344.37924195206074 403.28773174393143 L 344.2706114965324 386.4500111370454" stroke-miterlimit="10"/></g><g transform="translate(-14,-46) scale(1,1)"><path fill="none" stroke="#000000" d="M 225 192 L 228 335" stroke-miterlimit="10"/></g><g transform="translate(-14,-46) scale(1,1)"><path fill="none" stroke="#000000" d="M 223.5782522162188 324.9278529331316 L 228 335 L 231.99543564948257 324.75126866530087" stroke-miterlimit="10"/></g><g transform="translate(-14,-46) scale(1,1)"><rect fill="#C0C0C0" stroke="none" x="487" y="63" width="216.5302734375" height="135" opacity="0.2"/></g><g transform="translate(-14,-46) scale(1,1)"><rect fill="#008400" stroke="none" x="480" y="56" width="216.5302734375" height="135"/></g><g transform="translate(-14,-46) scale(1,1)"><path fill="none" stroke="#000000" d="M 480 56 L 696.5302734375 56 L 696.5302734375 191 L 480 191 L 480 56 Z Z" stroke-miterlimit="10"/></g><g transform="translate(-14,-46) scale(1,1)"><path fill="none" stroke="#000000" d="M 480 96 L 696.5302734375 96" stroke-miterlimit="10"/></g><g transform="translate(-14,-46) scale(1,1)"><path fill="none" stroke="#000000" d="M 480 119 L 696.5302734375 119" stroke-miterlimit="10"/></g><g transform="translate(-14,-46) scale(1,1)"><g><path fill="none" stroke="none"/><text fill="#000000" stroke="none" font-family="Arial" font-size="13px" font-style="normal" font-weight="bold" text-decoration="none" x="545.76513671875" y="75.5">I2CConnection</text></g></g><g transform="translate(-14,-46) scale(1,1)"><g><path fill="none" stroke="none"/><text fill="#000000" stroke="none" font-family="Arial" font-size="13px" font-style="normal" font-weight="normal" text-decoration="none" x="631.5302734375" y="90.5">{Phase=1}</text></g></g><g transform="translate(-14,-46) scale(1,1)"><g><path fill="none" stroke="none"/><text fill="#000000" stroke="none" font-family="Arial" font-size="13px" font-style="normal" font-weight="normal" text-decoration="none" x="485" y="113.5">-address: Integer</text></g></g><g transform="translate(-14,-46) scale(1,1)"><g><path fill="none" stroke="none"/><text fill="#000000" stroke="none" font-family="Arial" font-size="13px" font-style="normal" font-weight="normal" text-decoration="none" x="485" y="136.5">-send_over_i2c(String)</text></g></g><g transform="translate(-14,-46) scale(1,1)"><g><path fill="none" stroke="none"/><text fill="#000000" stroke="none" font-family="Arial" font-size="13px" font-style="normal" font-weight="normal" text-decoration="none" x="485" y="151.5">-get_over_i2c(): String</text></g></g><g transform="translate(-14,-46) scale(1,1)"><path fill="none" stroke="#000000" d="M 479 123 L 315 123" stroke-miterlimit="10"/></g><g transform="translate(-14,-46) scale(1,1)"><path fill="#FFFFFF" stroke="none" d="M 335.3253497152483 114.58096448796803 L 315 123 L 335.3253497152483 131.41903551203197"/></g><g transform="translate(-14,-46) scale(1,1)"><path fill="none" stroke="#000000" d="M 335.3253497152483 114.58096448796803 L 315 123 L 335.3253497152483 131.41903551203197 L 335.3253497152483 114.58096448796803" stroke-miterlimit="10"/></g><g transform="translate(-14,-46) scale(1,1)"><path fill="#008400" stroke="none" d="M 664 368 L 781 368 L 791 378 L 791 417 L 664 417 L 664 368"/></g><g transform="translate(-14,-46) scale(1,1)"><path fill="none" stroke="#000000" d="M 664 368 L 781 368 L 791 378 L 791 417 L 664 417 L 664 368 L 664 368" stroke-miterlimit="10"/></g><g transform="translate(-14,-46) scale(1,1)"><path fill="none" stroke="#000000" d="M 781 368 L 781 378 L 791 378 L 781 368" stroke-miterlimit="10"/></g><g transform="translate(-14,-46) scale(1,1)"><g><path fill="none" stroke="none"/><text fill="#000000" stroke="none" font-family="Arial" font-size="13px" font-style="normal" font-weight="normal" text-decoration="none" x="669" y="386">Add a data logging</text><text fill="#000000" stroke="none" font-family="Arial" font-size="13px" font-style="normal" font-weight="normal" text-decoration="none" x="669" y="399">system to do it by</text><text fill="#000000" stroke="none" font-family="Arial" font-size="13px" font-style="normal" font-weight="normal" text-decoration="none" x="669" y="412">default</text></g></g><g transform="translate(-14,-46) scale(1,1)"><path fill="none" stroke="#000000" d="M 663 393 L 594 394" stroke-miterlimit="10" stroke-dasharray="3"/></g></g></svg>