<svg version="1.1" xmlns="http://www.w3.org/2000/svg" xmlns:xlink="http://www.w3.org/1999/xlink" width="450.2666015625" height="411"><defs/><g><g transform="translate(-166,-166) scale(1,1)"><rect fill="#C0C0C0" stroke="none" x="335" y="183" width="132.12548828125" height="100" opacity="0.2"/></g><g transform="translate(-166,-166) scale(1,1)"><rect fill="#00ad00" stroke="none" x="328" y="176" width="132.12548828125" height="100"/></g><g transform="translate(-166,-166) scale(1,1)"><path fill="none" stroke="#000000" d="M 328 176 L 460.12548828125 176 L 460.12548828125 276 L 328 276 L 328 176 Z Z" stroke-miterlimit="10"/></g><g transform="translate(-166,-166) scale(1,1)"><path fill="none" stroke="#000000" d="M 328 216 L 460.12548828125 216" stroke-miterlimit="10"/></g><g transform="translate(-166,-166) scale(1,1)"><path fill="none" stroke="#000000" d="M 328 239 L 460.12548828125 239" stroke-miterlimit="10"/></g><g transform="translate(-166,-166) scale(1,1)"><g><path fill="none" stroke="none"/><text fill="#000000" stroke="none" font-family="Arial" font-size="13px" font-style="normal" font-weight="bold" text-decoration="none" x="370.562744140625" y="195.5">MCData</text></g></g><g transform="translate(-166,-166) scale(1,1)"><g><path fill="none" stroke="none"/><text fill="#000000" stroke="none" font-family="Arial" font-size="13px" font-style="normal" font-weight="normal" text-decoration="none" x="395.12548828125" y="210.5">{Phase=1}</text></g></g><g transform="translate(-166,-166) scale(1,1)"><g><path fill="none" stroke="none"/><text fill="#000000" stroke="none" font-family="Arial" font-size="13px" font-style="normal" font-weight="normal" text-decoration="none" x="333" y="233.5">-key: String</text><path fill="none" stroke="#000000" d="M 333 233.5 L 400 233.5" stroke-miterlimit="10"/></g></g><g transform="translate(-166,-166) scale(1,1)"><g><path fill="none" stroke="none"/><text fill="#000000" stroke="none" font-family="Arial" font-size="13px" font-style="italic" font-weight="normal" text-decoration="none" x="333" y="256.5">+to_json(): String</text></g></g><g transform="translate(-166,-166) scale(1,1)"><g><path fill="none" stroke="none"/><text fill="#000000" stroke="none" font-family="Arial" font-size="13px" font-style="italic" font-weight="normal" text-decoration="none" x="333" y="271.5">+from_json(): String</text></g></g><g transform="translate(-166,-166) scale(1,1)"><rect fill="#C0C0C0" stroke="none" x="487" y="319" width="126.2666015625" height="87" opacity="0.2"/></g><g transform="translate(-166,-166) scale(1,1)"><rect fill="#00ad00" stroke="none" x="480" y="312" width="126.2666015625" height="87"/></g><g transform="translate(-166,-166) scale(1,1)"><path fill="none" stroke="#000000" d="M 480 312 L 606.2666015625 312 L 606.2666015625 399 L 480 399 L 480 312 Z Z" stroke-miterlimit="10"/></g><g transform="translate(-166,-166) scale(1,1)"><path fill="none" stroke="#000000" d="M 480 352 L 606.2666015625 352" stroke-miterlimit="10"/></g><g transform="translate(-166,-166) scale(1,1)"><path fill="none" stroke="#000000" d="M 480 375 L 606.2666015625 375" stroke-miterlimit="10"/></g><g transform="translate(-166,-166) scale(1,1)"><g><path fill="none" stroke="none"/><text fill="#000000" stroke="none" font-family="Arial" font-size="13px" font-style="normal" font-weight="bold" text-decoration="none" x="521.13330078125" y="331.5">MCDInt</text></g></g><g transform="translate(-166,-166) scale(1,1)"><g><path fill="none" stroke="none"/><text fill="#000000" stroke="none" font-family="Arial" font-size="13px" font-style="normal" font-weight="normal" text-decoration="none" x="541.2666015625" y="346.5">{Phase=1}</text></g></g><g transform="translate(-166,-166) scale(1,1)"><g><path fill="none" stroke="none"/><text fill="#000000" stroke="none" font-family="Arial" font-size="13px" font-style="normal" font-weight="normal" text-decoration="none" x="485" y="369.5">-value: Integer</text></g></g><g transform="translate(-166,-166) scale(1,1)"><path fill="none" stroke="#000000" d="M 492 311 L 453 277" stroke-miterlimit="10"/></g><g transform="translate(-166,-166) scale(1,1)"><path fill="#FFFFFF" stroke="none" d="M 473.85313892984 284.0104633778939 L 453 277 L 462.7882497525463 296.7025421400838"/></g><g transform="translate(-166,-166) scale(1,1)"><path fill="none" stroke="#000000" d="M 473.85313892984 284.0104633778939 L 453 277 L 462.7882497525463 296.7025421400838 L 473.85313892984 284.0104633778939" stroke-miterlimit="10"/></g><g transform="translate(-166,-166) scale(1,1)"><rect fill="#C0C0C0" stroke="none" x="479" y="487" width="117" height="59" opacity="0.2"/></g><g transform="translate(-166,-166) scale(1,1)"><rect fill="#d10000" stroke="none" x="472" y="480" width="117" height="59"/></g><g transform="translate(-166,-166) scale(1,1)"><path fill="none" stroke="#000000" d="M 472 480 L 589 480 L 589 539 L 472 539 L 472 480 Z Z" stroke-miterlimit="10"/></g><g transform="translate(-166,-166) scale(1,1)"><path fill="none" stroke="#000000" d="M 472 520 L 589 520" stroke-miterlimit="10"/></g><g transform="translate(-166,-166) scale(1,1)"><path fill="none" stroke="#000000" d="M 472 530 L 589 530" stroke-miterlimit="10"/></g><g transform="translate(-166,-166) scale(1,1)"><g><path fill="none" stroke="none"/><text fill="#000000" stroke="none" font-family="Arial" font-size="13px" font-style="normal" font-weight="bold" text-decoration="none" x="494" y="499.5">MCDVoltage</text></g></g><g transform="translate(-166,-166) scale(1,1)"><g><path fill="none" stroke="none"/><text fill="#000000" stroke="none" font-family="Arial" font-size="13px" font-style="normal" font-weight="normal" text-decoration="none" x="524" y="514.5">{Phase=2}</text></g></g><g transform="translate(-166,-166) scale(1,1)"><rect fill="#C0C0C0" stroke="none" x="207" y="327" width="94" height="72" opacity="0.2"/></g><g transform="translate(-166,-166) scale(1,1)"><rect fill="#00ad00" stroke="none" x="200" y="320" width="94" height="72"/></g><g transform="translate(-166,-166) scale(1,1)"><path fill="none" stroke="#000000" d="M 200 320 L 294 320 L 294 392 L 200 392 L 200 320 Z Z" stroke-miterlimit="10"/></g><g transform="translate(-166,-166) scale(1,1)"><path fill="none" stroke="#000000" d="M 200 360 L 294 360" stroke-miterlimit="10"/></g><g transform="translate(-166,-166) scale(1,1)"><path fill="none" stroke="#000000" d="M 200 383 L 294 383" stroke-miterlimit="10"/></g><g transform="translate(-166,-166) scale(1,1)"><g><path fill="none" stroke="none"/><text fill="#000000" stroke="none" font-family="Arial" font-size="13px" font-style="normal" font-weight="bold" text-decoration="none" x="215.5" y="339.5">MCDString</text></g></g><g transform="translate(-166,-166) scale(1,1)"><g><path fill="none" stroke="none"/><text fill="#000000" stroke="none" font-family="Arial" font-size="13px" font-style="normal" font-weight="normal" text-decoration="none" x="229" y="354.5">{Phase=1}</text></g></g><g transform="translate(-166,-166) scale(1,1)"><g><path fill="none" stroke="none"/><text fill="#000000" stroke="none" font-family="Arial" font-size="13px" font-style="normal" font-weight="normal" text-decoration="none" x="205" y="377.5">-value: String</text></g></g><g transform="translate(-166,-166) scale(1,1)"><path fill="none" stroke="#000000" d="M 289 319 L 336 277" stroke-miterlimit="10"/></g><g transform="translate(-166,-166) scale(1,1)"><path fill="#FFFFFF" stroke="none" d="M 326.45414320075577 296.82111545721693 L 336 277 L 315.2344147745391 284.26570507549826"/></g><g transform="translate(-166,-166) scale(1,1)"><path fill="none" stroke="#000000" d="M 326.45414320075577 296.82111545721693 L 336 277 L 315.2344147745391 284.26570507549826 L 326.45414320075577 296.82111545721693" stroke-miterlimit="10"/></g><g transform="translate(-166,-166) scale(1,1)"><rect fill="#C0C0C0" stroke="none" x="183" y="487" width="148.6484375" height="87" opacity="0.2"/></g><g transform="translate(-166,-166) scale(1,1)"><rect fill="#d10000" stroke="none" x="176" y="480" width="148.6484375" height="87"/></g><g transform="translate(-166,-166) scale(1,1)"><path fill="none" stroke="#000000" d="M 176 480 L 324.6484375 480 L 324.6484375 567 L 176 567 L 176 480 Z Z" stroke-miterlimit="10"/></g><g transform="translate(-166,-166) scale(1,1)"><path fill="none" stroke="#000000" d="M 176 520 L 324.6484375 520" stroke-miterlimit="10"/></g><g transform="translate(-166,-166) scale(1,1)"><path fill="none" stroke="#000000" d="M 176 530 L 324.6484375 530" stroke-miterlimit="10"/></g><g transform="translate(-166,-166) scale(1,1)"><g><path fill="none" stroke="none"/><text fill="#000000" stroke="none" font-family="Arial" font-size="13px" font-style="normal" font-weight="bold" text-decoration="none" x="188.32421875" y="499.5">MCDRotationalSpeed</text></g></g><g transform="translate(-166,-166) scale(1,1)"><g><path fill="none" stroke="none"/><text fill="#000000" stroke="none" font-family="Arial" font-size="13px" font-style="normal" font-weight="normal" text-decoration="none" x="259.6484375" y="514.5">{Phase=3}</text></g></g><g transform="translate(-166,-166) scale(1,1)"><g><path fill="none" stroke="none"/><text fill="#000000" stroke="none" font-family="Arial" font-size="13px" font-style="normal" font-weight="normal" text-decoration="none" x="181" y="547.5">+to_mph()</text></g></g><g transform="translate(-166,-166) scale(1,1)"><g><path fill="none" stroke="none"/><text fill="#000000" stroke="none" font-family="Arial" font-size="13px" font-style="normal" font-weight="normal" text-decoration="none" x="181" y="562.5">+to_kph()</text></g></g><g transform="translate(-166,-166) scale(1,1)"><rect fill="#C0C0C0" stroke="none" x="359" y="487" width="91.41162109375" height="59" opacity="0.2"/></g><g transform="translate(-166,-166) scale(1,1)"><rect fill="#d10000" stroke="none" x="352" y="480" width="91.41162109375" height="59"/></g><g transform="translate(-166,-166) scale(1,1)"><path fill="none" stroke="#000000" d="M 352 480 L 443.41162109375 480 L 443.41162109375 539 L 352 539 L 352 480 Z Z" stroke-miterlimit="10"/></g><g transform="translate(-166,-166) scale(1,1)"><path fill="none" stroke="#000000" d="M 352 520 L 443.41162109375 520" stroke-miterlimit="10"/></g><g transform="translate(-166,-166) scale(1,1)"><path fill="none" stroke="#000000" d="M 352 530 L 443.41162109375 530" stroke-miterlimit="10"/></g><g transform="translate(-166,-166) scale(1,1)"><g><path fill="none" stroke="none"/><text fill="#000000" stroke="none" font-family="Arial" font-size="13px" font-style="normal" font-weight="bold" text-decoration="none" x="362.205810546875" y="499.5">MCDCurrent</text></g></g><g transform="translate(-166,-166) scale(1,1)"><g><path fill="none" stroke="none"/><text fill="#000000" stroke="none" font-family="Arial" font-size="13px" font-style="normal" font-weight="normal" text-decoration="none" x="378.41162109375" y="514.5">{Phase=2}</text></g></g><g transform="translate(-166,-166) scale(1,1)"><rect fill="#C0C0C0" stroke="none" x="343" y="327" width="126.2666015625" height="87" opacity="0.2"/></g><g transform="translate(-166,-166) scale(1,1)"><rect fill="#008400" stroke="none" x="336" y="320" width="126.2666015625" height="87"/></g><g transform="translate(-166,-166) scale(1,1)"><path fill="none" stroke="#000000" d="M 336 320 L 462.2666015625 320 L 462.2666015625 407 L 336 407 L 336 320 Z Z" stroke-miterlimit="10"/></g><g transform="translate(-166,-166) scale(1,1)"><path fill="none" stroke="#000000" d="M 336 360 L 462.2666015625 360" stroke-miterlimit="10"/></g><g transform="translate(-166,-166) scale(1,1)"><path fill="none" stroke="#000000" d="M 336 383 L 462.2666015625 383" stroke-miterlimit="10"/></g><g transform="translate(-166,-166) scale(1,1)"><g><path fill="none" stroke="none"/><text fill="#000000" stroke="none" font-family="Arial" font-size="13px" font-style="normal" font-weight="bold" text-decoration="none" x="364.63330078125" y="339.5">MCDDouble</text></g></g><g transform="translate(-166,-166) scale(1,1)"><g><path fill="none" stroke="none"/><text fill="#000000" stroke="none" font-family="Arial" font-size="13px" font-style="normal" font-weight="normal" text-decoration="none" x="397.2666015625" y="354.5">{Phase=1}</text></g></g><g transform="translate(-166,-166) scale(1,1)"><g><path fill="none" stroke="none"/><text fill="#000000" stroke="none" font-family="Arial" font-size="13px" font-style="normal" font-weight="normal" text-decoration="none" x="341" y="377.5">-value: Double</text></g></g><g transform="translate(-166,-166) scale(1,1)"><path fill="none" stroke="#000000" d="M 397 319 L 396 277" stroke-miterlimit="10"/></g><g transform="translate(-166,-166) scale(1,1)"><path fill="#FFFFFF" stroke="none" d="M 404.9004499641751 297.11919457719955 L 396 277 L 388.06714960773036 297.5199874428292"/></g><g transform="translate(-166,-166) scale(1,1)"><path fill="none" stroke="#000000" d="M 404.9004499641751 297.11919457719955 L 396 277 L 388.06714960773036 297.5199874428292 L 404.9004499641751 297.11919457719955" stroke-miterlimit="10"/></g><g transform="translate(-166,-166) scale(1,1)"><path fill="none" stroke="#000000" d="M 291 479 L 357 408" stroke-miterlimit="10"/></g><g transform="translate(-166,-166) scale(1,1)"><path fill="#FFFFFF" stroke="none" d="M 349.32787344546676 428.61888634556254 L 357 408 L 336.9952329317062 417.15474164263014"/></g><g transform="translate(-166,-166) scale(1,1)"><path fill="none" stroke="#000000" d="M 349.32787344546676 428.61888634556254 L 357 408 L 336.9952329317062 417.15474164263014 L 349.32787344546676 428.61888634556254" stroke-miterlimit="10"/></g><g transform="translate(-166,-166) scale(1,1)"><path fill="none" stroke="#000000" d="M 397 479 L 398 408" stroke-miterlimit="10"/></g><g transform="translate(-166,-166) scale(1,1)"><path fill="#FFFFFF" stroke="none" d="M 406.13195643915424 428.4419002167533 L 398 408 L 389.29555527883457 428.2047678060446"/></g><g transform="translate(-166,-166) scale(1,1)"><path fill="none" stroke="#000000" d="M 406.13195643915424 428.4419002167533 L 398 408 L 389.29555527883457 428.2047678060446 L 406.13195643915424 428.4419002167533" stroke-miterlimit="10"/></g><g transform="translate(-166,-166) scale(1,1)"><path fill="none" stroke="#000000" d="M 503 479 L 439 408" stroke-miterlimit="10"/></g><g transform="translate(-166,-166) scale(1,1)"><path fill="#FFFFFF" stroke="none" d="M 458.86212425805314 417.46023361009946 L 439 408 L 446.35524741432897 428.73403808894943"/></g><g transform="translate(-166,-166) scale(1,1)"><path fill="none" stroke="#000000" d="M 458.86212425805314 417.46023361009946 L 439 408 L 446.35524741432897 428.73403808894943 L 458.86212425805314 417.46023361009946" stroke-miterlimit="10"/></g></g></svg>