<svg version="1.1" xmlns="http://www.w3.org/2000/svg" xmlns:xlink="http://www.w3.org/1999/xlink" width="716" height="657"><defs/><g><g transform="translate(-22,-22) scale(1,1)"><path fill="#008400" stroke="none" d="M 32 32 L 302 32 L 312 42 L 312 107 L 32 107 L 32 32"/></g><g transform="translate(-22,-22) scale(1,1)"><path fill="none" stroke="#000000" d="M 32 32 L 302 32 L 312 42 L 312 107 L 32 107 L 32 32 L 32 32" stroke-miterlimit="10"/></g><g transform="translate(-22,-22) scale(1,1)"><path fill="none" stroke="#000000" d="M 302 32 L 302 42 L 312 42 L 302 32" stroke-miterlimit="10"/></g><g transform="translate(-22,-22) scale(1,1)"><g><path fill="none" stroke="none"/><text fill="#000000" stroke="none" font-family="Arial" font-size="13px" font-style="normal" font-weight="normal" text-decoration="none" x="37" y="50">The class "MasterController" must be</text><text fill="#000000" stroke="none" font-family="Arial" font-size="13px" font-style="normal" font-weight="normal" text-decoration="none" x="37" y="63">implemented, in a file called</text><text fill="#000000" stroke="none" font-family="Arial" font-size="13px" font-style="normal" font-weight="normal" text-decoration="none" x="37" y="76">"/MasterController.cpp"/"/MasterController.h".</text><text fill="#000000" stroke="none" font-family="Arial" font-size="13px" font-style="normal" font-weight="normal" text-decoration="none" x="37" y="89">MasterController must be a subclass of</text><text fill="#000000" stroke="none" font-family="Arial" font-size="13px" font-style="normal" font-weight="normal" text-decoration="none" x="37" y="102">MCMasterDevice</text></g></g><g transform="translate(-22,-22) scale(1,1)"><path fill="#008400" stroke="none" d="M 384.5 208 L 439.5 208 Q 456 208 456 224.5 L 456 223.5 Q 456 240 439.5 240 L 384.5 240 Q 368 240 368 223.5 L 368 224.5 Q 368 208 384.5 208 Z"/></g><g transform="translate(-22,-22) scale(1,1)"><path fill="none" stroke="#000000" d="M 384.5 208 L 439.5 208 Q 456 208 456 224.5 L 456 223.5 Q 456 240 439.5 240 L 384.5 240 Q 368 240 368 223.5 L 368 224.5 Q 368 208 384.5 208 Z" stroke-miterlimit="10"/></g><g transform="translate(-22,-22) scale(1,1)"><g><path fill="none" stroke="none"/><text fill="#000000" stroke="none" font-family="Arial" font-size="13px" font-style="normal" font-weight="normal" text-decoration="none" x="383.5" y="230.5">Power On</text></g></g><g transform="translate(-22,-22) scale(1,1)"><rect fill="#008400" stroke="none" x="368" y="280" width="83" height="58"/></g><g transform="translate(-22,-22) scale(1,1)"><path fill="none" stroke="#000000" d="M 368 280 L 451 280 L 451 338 L 368 338 L 368 280 Z Z" stroke-miterlimit="10"/></g><g transform="translate(-22,-22) scale(1,1)"><g><path fill="none" stroke="none"/><text fill="#000000" stroke="none" font-family="Arial" font-size="13px" font-style="normal" font-weight="normal" text-decoration="none" x="381.5" y="302.5">Construct</text><text fill="#000000" stroke="none" font-family="Arial" font-size="13px" font-style="normal" font-weight="normal" text-decoration="none" x="389.5" y="315.5">Master</text><text fill="#000000" stroke="none" font-family="Arial" font-size="13px" font-style="normal" font-weight="normal" text-decoration="none" x="382" y="328.5">Controller</text></g></g><g transform="translate(-22,-22) scale(1,1)"><rect fill="#008400" stroke="none" x="336" y="384" width="158" height="45"/></g><g transform="translate(-22,-22) scale(1,1)"><path fill="none" stroke="#000000" d="M 336 384 L 494 384 L 494 429 L 336 429 L 336 384 Z Z" stroke-miterlimit="10"/></g><g transform="translate(-22,-22) scale(1,1)"><g><path fill="none" stroke="none"/><text fill="#000000" stroke="none" font-family="Arial" font-size="13px" font-style="normal" font-weight="normal" text-decoration="none" x="404" y="406.5">Call</text><text fill="#000000" stroke="none" font-family="Arial" font-size="13px" font-style="normal" font-weight="normal" text-decoration="none" x="348" y="419.5">MasterController.build()</text></g></g><g transform="translate(-22,-22) scale(1,1)"><rect fill="#008400" stroke="none" x="336" y="464" width="158" height="45"/></g><g transform="translate(-22,-22) scale(1,1)"><path fill="none" stroke="#000000" d="M 336 464 L 494 464 L 494 509 L 336 509 L 336 464 Z Z" stroke-miterlimit="10"/></g><g transform="translate(-22,-22) scale(1,1)"><g><path fill="none" stroke="none"/><text fill="#000000" stroke="none" font-family="Arial" font-size="13px" font-style="normal" font-weight="normal" text-decoration="none" x="404" y="486.5">Call</text><text fill="#000000" stroke="none" font-family="Arial" font-size="13px" font-style="normal" font-weight="normal" text-decoration="none" x="345.5" y="499.5">MasterController.setup()</text></g></g><g transform="translate(-22,-22) scale(1,1)"><rect fill="#008400" stroke="none" x="336" y="544" width="154" height="45"/></g><g transform="translate(-22,-22) scale(1,1)"><path fill="none" stroke="#000000" d="M 336 544 L 490 544 L 490 589 L 336 589 L 336 544 Z Z" stroke-miterlimit="10"/></g><g transform="translate(-22,-22) scale(1,1)"><g><path fill="none" stroke="none"/><text fill="#000000" stroke="none" font-family="Arial" font-size="13px" font-style="normal" font-weight="normal" text-decoration="none" x="402" y="566.5">Call</text><text fill="#000000" stroke="none" font-family="Arial" font-size="13px" font-style="normal" font-weight="normal" text-decoration="none" x="345.5" y="579.5">MasterController.main()</text></g></g><g transform="translate(-22,-22) scale(1,1)"><rect fill="#008400" stroke="none" x="328" y="624" width="178" height="45"/></g><g transform="translate(-22,-22) scale(1,1)"><path fill="none" stroke="#000000" d="M 328 624 L 506 624 L 506 669 L 328 669 L 328 624 Z Z" stroke-miterlimit="10"/></g><g transform="translate(-22,-22) scale(1,1)"><g><path fill="none" stroke="none"/><text fill="#000000" stroke="none" font-family="Arial" font-size="13px" font-style="normal" font-weight="normal" text-decoration="none" x="406" y="646.5">Call</text><text fill="#000000" stroke="none" font-family="Arial" font-size="13px" font-style="normal" font-weight="normal" text-decoration="none" x="337.5" y="659.5">MasterController.teardown()</text></g></g><g transform="translate(-22,-22) scale(1,1)"><path fill="none" stroke="#000000" d="M 411 240 L 411 280" stroke-miterlimit="10"/></g><g transform="translate(-22,-22) scale(1,1)"><path fill="#000000" stroke="none" d="M 406.790482243984 269.83732514237585 L 411 280 L 415.209517756016 269.83732514237585"/></g><g transform="translate(-22,-22) scale(1,1)"><path fill="none" stroke="#000000" d="M 406.790482243984 269.83732514237585 L 411 280 L 415.209517756016 269.83732514237585 L 406.790482243984 269.83732514237585" stroke-miterlimit="10"/></g><g transform="translate(-22,-22) scale(1,1)"><path fill="none" stroke="#000000" d="M 411 338 L 411 384" stroke-miterlimit="10"/></g><g transform="translate(-22,-22) scale(1,1)"><path fill="#000000" stroke="none" d="M 406.790482243984 373.83732514237585 L 411 384 L 415.209517756016 373.83732514237585"/></g><g transform="translate(-22,-22) scale(1,1)"><path fill="none" stroke="#000000" d="M 406.790482243984 373.83732514237585 L 411 384 L 415.209517756016 373.83732514237585 L 406.790482243984 373.83732514237585" stroke-miterlimit="10"/></g><g transform="translate(-22,-22) scale(1,1)"><path fill="none" stroke="#000000" d="M 415 429 L 415 464" stroke-miterlimit="10"/></g><g transform="translate(-22,-22) scale(1,1)"><path fill="#000000" stroke="none" d="M 410.790482243984 453.83732514237585 L 415 464 L 419.209517756016 453.83732514237585"/></g><g transform="translate(-22,-22) scale(1,1)"><path fill="none" stroke="#000000" d="M 410.790482243984 453.83732514237585 L 415 464 L 419.209517756016 453.83732514237585 L 410.790482243984 453.83732514237585" stroke-miterlimit="10"/></g><g transform="translate(-22,-22) scale(1,1)"><path fill="none" stroke="#000000" d="M 414 509 L 414 544" stroke-miterlimit="10"/></g><g transform="translate(-22,-22) scale(1,1)"><path fill="#000000" stroke="none" d="M 409.790482243984 533.8373251423759 L 414 544 L 418.209517756016 533.8373251423759"/></g><g transform="translate(-22,-22) scale(1,1)"><path fill="none" stroke="#000000" d="M 409.790482243984 533.8373251423759 L 414 544 L 418.209517756016 533.8373251423759 L 409.790482243984 533.8373251423759" stroke-miterlimit="10"/></g><g transform="translate(-22,-22) scale(1,1)"><path fill="none" stroke="#000000" d="M 414 589 L 414 624" stroke-miterlimit="10"/></g><g transform="translate(-22,-22) scale(1,1)"><path fill="#000000" stroke="none" d="M 409.790482243984 613.8373251423759 L 414 624 L 418.209517756016 613.8373251423759"/></g><g transform="translate(-22,-22) scale(1,1)"><path fill="none" stroke="#000000" d="M 409.790482243984 613.8373251423759 L 414 624 L 418.209517756016 613.8373251423759 L 409.790482243984 613.8373251423759" stroke-miterlimit="10"/></g><g transform="translate(-22,-22) scale(1,1)"><path fill="none" stroke="#000000" d="M 506 648 L 592 648 M 592 648 A 8 8 0 0 0 600 640 L 600 496 M 600 496 A 8 8 0 0 0 592 488 L 494 488" stroke-miterlimit="10"/></g><g transform="translate(-22,-22) scale(1,1)"><path fill="#000000" stroke="none" d="M 504.16267485762415 483.790482243984 L 494 488 L 504.16267485762415 492.209517756016"/></g><g transform="translate(-22,-22) scale(1,1)"><path fill="none" stroke="#000000" d="M 504.16267485762415 483.790482243984 L 494 488 L 504.16267485762415 492.209517756016 L 504.16267485762415 483.790482243984" stroke-miterlimit="10"/></g><g transform="translate(-22,-22) scale(1,1)"><path fill="#008400" stroke="none" d="M 152 480 L 225 480 L 235 490 L 235 568 L 152 568 L 152 480"/></g><g transform="translate(-22,-22) scale(1,1)"><path fill="none" stroke="#000000" d="M 152 480 L 225 480 L 235 490 L 235 568 L 152 568 L 152 480 L 152 480" stroke-miterlimit="10"/></g><g transform="translate(-22,-22) scale(1,1)"><path fill="none" stroke="#000000" d="M 225 480 L 225 490 L 235 490 L 225 480" stroke-miterlimit="10"/></g><g transform="translate(-22,-22) scale(1,1)"><g><path fill="none" stroke="none"/><text fill="#000000" stroke="none" font-family="Arial" font-size="13px" font-style="normal" font-weight="normal" text-decoration="none" x="157" y="498">Eventually,</text><text fill="#000000" stroke="none" font-family="Arial" font-size="13px" font-style="normal" font-weight="normal" text-decoration="none" x="157" y="511">we want to</text><text fill="#000000" stroke="none" font-family="Arial" font-size="13px" font-style="normal" font-weight="normal" text-decoration="none" x="157" y="524">add error</text><text fill="#000000" stroke="none" font-family="Arial" font-size="13px" font-style="normal" font-weight="normal" text-decoration="none" x="157" y="537">handling</text><text fill="#000000" stroke="none" font-family="Arial" font-size="13px" font-style="normal" font-weight="normal" text-decoration="none" x="157" y="550">here</text></g></g><g transform="translate(-22,-22) scale(1,1)"><path fill="none" stroke="#000000" d="M 237 501 L 370 430" stroke-miterlimit="10" stroke-dasharray="3"/></g><g transform="translate(-22,-22) scale(1,1)"><path fill="none" stroke="#000000" d="M 237 517 L 335 500" stroke-miterlimit="10" stroke-dasharray="3"/></g><g transform="translate(-22,-22) scale(1,1)"><path fill="none" stroke="#000000" d="M 237 532 L 335 551" stroke-miterlimit="10" stroke-dasharray="3"/></g><g transform="translate(-22,-22) scale(1,1)"><path fill="none" stroke="#000000" d="M 237 548 L 375 623" stroke-miterlimit="10" stroke-dasharray="3"/></g><g transform="translate(-22,-22) scale(1,1)"><path fill="#008400" stroke="none" d="M 496 144 L 717 144 L 727 154 L 727 219 L 496 219 L 496 144"/></g><g transform="translate(-22,-22) scale(1,1)"><path fill="none" stroke="#000000" d="M 496 144 L 717 144 L 727 154 L 727 219 L 496 219 L 496 144 L 496 144" stroke-miterlimit="10"/></g><g transform="translate(-22,-22) scale(1,1)"><path fill="none" stroke="#000000" d="M 717 144 L 717 154 L 727 154 L 717 144" stroke-miterlimit="10"/></g><g transform="translate(-22,-22) scale(1,1)"><g><path fill="none" stroke="none"/><text fill="#000000" stroke="none" font-family="Arial" font-size="13px" font-style="normal" font-weight="normal" text-decoration="none" x="501" y="162">This is executed by a pre-defined file.</text><text fill="#000000" stroke="none" font-family="Arial" font-size="13px" font-style="normal" font-weight="normal" text-decoration="none" x="501" y="175">The point of a predefined file is so</text><text fill="#000000" stroke="none" font-family="Arial" font-size="13px" font-style="normal" font-weight="normal" text-decoration="none" x="501" y="188">that all developers have to implement</text><text fill="#000000" stroke="none" font-family="Arial" font-size="13px" font-style="normal" font-weight="normal" text-decoration="none" x="501" y="201">to get started is the MasterController</text><text fill="#000000" stroke="none" font-family="Arial" font-size="13px" font-style="normal" font-weight="normal" text-decoration="none" x="501" y="214">Class</text></g></g></g></svg>